<svg width="608" height="69" viewBox="0 0 608 69" fill="none" xmlns="http://www.w3.org/2000/svg">
<g filter="url(#filter0_d_410_594)">
<path d="M420.047 24.7299C420.251 24.7299 420.761 25.0564 421.577 25.7093C422.393 26.3214 423.209 27.1988 424.025 28.3414C424.842 29.4433 425.25 30.5247 425.25 31.5857V41.8694C425.25 42.604 424.168 43.5017 422.005 44.5628C419.843 45.6238 417.741 46.5012 415.701 47.1949C413.701 47.8478 412.62 48.1743 412.456 48.1743C412.456 51.3166 413.823 53.2549 416.558 53.9895C417.904 54.316 419.516 54.4792 421.393 54.4792V56.2544C414.701 58.4988 411.13 59.6211 410.681 59.6211C409.457 59.6211 408.212 58.7641 406.947 57.0501C405.682 55.2954 405.05 53.255 405.05 50.9289V30.3614C405.05 30.0758 407.376 29.076 412.028 27.362C416.68 25.6073 419.353 24.7299 420.047 24.7299ZM417.904 34.4627C417.904 33.3201 417.639 32.3611 417.108 31.5857C416.578 30.7695 415.905 30.3614 415.088 30.3614C414.272 30.3614 413.374 30.6675 412.395 31.2796V45.4197C416.068 44.3995 417.904 42.1959 417.904 38.8088V34.4627Z" fill="url(#paint0_linear_410_594)"/>
<path d="M433.501 55.4586V34.7075C433.501 33.3609 433.216 32.1978 432.644 31.2184C432.073 30.239 431.359 29.7493 430.502 29.7493V28.4026C430.788 28.3618 433.012 27.1172 437.174 24.6687C437.46 24.7503 437.807 24.8727 438.215 25.036C438.623 25.1584 439.153 25.5461 439.806 26.199C440.5 26.8519 440.847 27.6069 440.847 28.4639C441.092 28.3414 441.786 27.9537 442.928 27.3008C445.948 25.5869 447.744 24.7299 448.315 24.7299C449.621 24.7299 450.845 25.5869 451.988 27.3008C453.13 29.0148 453.702 30.5859 453.702 32.0142V50.5616C453.702 52.8061 454.701 54.1323 456.701 54.5404V55.8871L450.029 59.6211C449.131 59.2538 448.295 58.6621 447.519 57.8459C446.744 56.9889 446.356 56.1932 446.356 55.4586V37.707C446.356 35.4217 446.091 33.6873 445.56 32.5039C445.071 31.2796 444.173 30.6675 442.867 30.6675L440.847 31.0348V50.5616C440.847 53.0509 441.684 54.4588 443.357 54.7853V56.1319L437.174 59.6211C436.276 59.2538 435.44 58.6621 434.664 57.8459C433.889 56.9889 433.501 56.1932 433.501 55.4586Z" fill="url(#paint1_linear_410_594)"/>
<path d="M477.249 24.7299C477.453 24.7299 477.963 25.0564 478.78 25.7093C479.596 26.3214 480.412 27.1988 481.228 28.3414C482.044 29.4433 482.452 30.5247 482.452 31.5857V41.8694C482.452 42.604 481.371 43.5017 479.208 44.5628C477.045 45.6238 474.944 46.5012 472.903 47.1949C470.904 47.8478 469.822 48.1743 469.659 48.1743C469.659 51.3166 471.026 53.2549 473.76 53.9895C475.107 54.316 476.719 54.4792 478.596 54.4792V56.2544C471.903 58.4988 468.333 59.6211 467.884 59.6211C466.66 59.6211 465.415 58.7641 464.15 57.0501C462.885 55.2954 462.252 53.255 462.252 50.9289V30.3614C462.252 30.0758 464.578 29.076 469.23 27.362C473.883 25.6073 476.556 24.7299 477.249 24.7299ZM475.107 34.4627C475.107 33.3201 474.842 32.3611 474.311 31.5857C473.781 30.7695 473.107 30.3614 472.291 30.3614C471.475 30.3614 470.577 30.6675 469.598 31.2796V45.4197C473.271 44.3995 475.107 42.1959 475.107 38.8088V34.4627Z" fill="url(#paint2_linear_410_594)"/>
<path d="M487.705 28.4026L494.438 24.7299C494.724 24.8115 495.05 24.9339 495.418 25.0972C495.826 25.2196 496.356 25.6073 497.009 26.2602C497.703 26.9131 498.05 27.6477 498.05 28.4639C498.254 28.3822 499.213 27.7497 500.927 26.5663C502.681 25.342 503.804 24.7299 504.293 24.7299C505.599 24.7299 506.823 25.5869 507.966 27.3008C509.109 29.0148 509.68 30.5859 509.68 32.0142V35.0136L503.375 38.5639L502.335 37.707C502.335 34.2791 502.008 32.3202 501.355 31.8305C500.621 31.3 499.519 31.0348 498.05 31.0348V50.5616C498.05 53.0509 498.886 54.4588 500.559 54.7853V56.1319L494.377 59.6211C493.479 59.2538 492.643 58.6621 491.867 57.8459C491.092 56.9889 490.704 56.1932 490.704 55.4586V35.136C490.704 33.3405 490.378 31.9938 489.725 31.096C489.113 30.1982 488.439 29.7493 487.705 29.7493V28.4026Z" fill="url(#paint3_linear_410_594)"/>
<path d="M531.736 32.81V50.1331C531.736 51.643 531.981 52.704 532.47 53.3162C532.96 53.8875 533.715 54.2956 534.735 54.5404V55.8871L528.063 59.6211C527.165 59.2538 526.329 58.6621 525.553 57.8459C524.778 56.9889 524.39 56.2136 524.39 55.5198L516.739 59.6211C516.616 59.5394 516.433 59.4374 516.188 59.315C515.943 59.1518 515.514 58.8457 514.902 58.3968C514.331 57.9071 513.821 57.397 513.372 56.8665C512.148 55.5198 511.536 53.9895 511.536 52.2755V42.2367C511.536 41.5838 512.597 40.7472 514.719 39.727C516.841 38.7068 518.963 37.8702 521.085 37.2173L524.329 36.1766C524.329 33.8506 523.717 32.2386 522.493 31.3408C521.268 30.4023 518.901 29.933 515.392 29.933V28.0966C521.717 25.8521 525.268 24.7299 526.043 24.7299C527.39 24.7299 528.675 25.6073 529.899 27.362C531.124 29.1168 531.736 30.9328 531.736 32.81ZM518.881 50.0719C518.881 51.1329 519.187 52.0103 519.799 52.704C520.452 53.357 521.166 53.6834 521.942 53.6834C522.717 53.6834 523.533 53.3774 524.39 52.7653V38.9312C523.37 39.2985 522.595 39.6045 522.064 39.8494C521.574 40.0942 521.044 40.4819 520.473 41.0124C519.412 41.9918 518.881 43.6854 518.881 46.0931V50.0719Z" fill="url(#paint4_linear_410_594)"/>
<path d="M547.661 0V10.7822H557.778L557.166 14.656H547.661V50.5616C547.661 53.0509 548.497 54.4588 550.17 54.7853V56.1319L543.988 59.6211C543.09 59.2538 542.253 58.6621 541.478 57.8459C540.703 56.9889 540.315 56.1932 540.315 55.4586V14.7173H531.684L531.41 11.0882C532.634 11.0882 539.717 11.2719 541.478 10.2138C543.556 8.96491 545.62 1.87719 545.947 0H547.661Z" fill="url(#paint5_linear_410_594)"/>
<path d="M556.214 50.684V30.3614C556.214 30.0758 558.54 29.076 563.192 27.362C567.844 25.6073 570.517 24.7299 571.211 24.7299C571.904 24.7299 572.945 25.5665 574.332 27.2396C575.761 28.9127 576.475 30.4227 576.475 31.7693V53.9283C576.475 54.2548 574.23 55.2954 569.742 57.0501C565.293 58.7641 562.559 59.6211 561.539 59.6211C560.56 59.6211 559.417 58.7437 558.111 56.9889C556.846 55.2342 556.214 53.1325 556.214 50.684ZM566.681 53.9895C567.456 53.9895 568.252 53.663 569.068 53.0101V34.9524C569.068 31.9326 568.028 30.4227 565.946 30.4227C565.13 30.4227 564.334 30.7287 563.559 31.3408V49.4598C563.559 52.4796 564.6 53.9895 566.681 53.9895Z" fill="url(#paint6_linear_410_594)"/>
<path d="M582.025 28.4026L588.758 24.7299C589.044 24.8115 589.37 24.9339 589.738 25.0972C590.146 25.2196 590.676 25.6073 591.329 26.2602C592.023 26.9131 592.37 27.6477 592.37 28.4639C592.574 28.3822 593.533 27.7497 595.247 26.5663C597.001 25.342 598.124 24.7299 598.613 24.7299C599.919 24.7299 601.143 25.5869 602.286 27.3008C603.429 29.0148 604 30.5859 604 32.0142V35.0136L597.695 38.5639L596.655 37.707C596.655 34.2791 596.328 32.3202 595.675 31.8305C594.941 31.3 593.839 31.0348 592.37 31.0348V50.5616C592.37 53.0509 593.206 54.4588 594.879 54.7853V56.1319L588.697 59.6211C587.799 59.2538 586.963 58.6621 586.187 57.8459C585.412 56.9889 585.024 56.1932 585.024 55.4586V35.136C585.024 33.3405 584.698 31.9938 584.045 31.096C583.433 30.1982 582.759 29.7493 582.025 29.7493V28.4026Z" fill="url(#paint7_linear_410_594)"/>
</g>
<g style="mix-blend-mode:soft-light" filter="url(#filter1_b_410_594)">
<path d="M420.047 24.7299C420.251 24.7299 420.761 25.0564 421.577 25.7093C422.393 26.3214 423.209 27.1988 424.025 28.3414C424.842 29.4433 425.25 30.5247 425.25 31.5857V41.8694C425.25 42.604 424.168 43.5017 422.005 44.5628C419.843 45.6238 417.741 46.5012 415.701 47.1949C413.701 47.8478 412.62 48.1743 412.456 48.1743C412.456 51.3166 413.823 53.2549 416.558 53.9895C417.904 54.316 419.516 54.4792 421.393 54.4792V56.2544C414.701 58.4988 411.13 59.6211 410.681 59.6211C409.457 59.6211 408.212 58.7641 406.947 57.0501C405.682 55.2954 405.05 53.255 405.05 50.9289V30.3614C405.05 30.0758 407.376 29.076 412.028 27.362C416.68 25.6073 419.353 24.7299 420.047 24.7299ZM417.904 34.4627C417.904 33.3201 417.639 32.3611 417.108 31.5857C416.578 30.7695 415.905 30.3614 415.088 30.3614C414.272 30.3614 413.374 30.6675 412.395 31.2796V45.4197C416.068 44.3995 417.904 42.1959 417.904 38.8088V34.4627Z" fill="url(#paint8_linear_410_594)" fill-opacity="0.5"/>
<path d="M433.501 55.4586V34.7075C433.501 33.3609 433.216 32.1978 432.644 31.2184C432.073 30.239 431.359 29.7493 430.502 29.7493V28.4026C430.788 28.3618 433.012 27.1172 437.174 24.6687C437.46 24.7503 437.807 24.8727 438.215 25.036C438.623 25.1584 439.153 25.5461 439.806 26.199C440.5 26.8519 440.847 27.6069 440.847 28.4639C441.092 28.3414 441.786 27.9537 442.928 27.3008C445.948 25.5869 447.744 24.7299 448.315 24.7299C449.621 24.7299 450.845 25.5869 451.988 27.3008C453.13 29.0148 453.702 30.5859 453.702 32.0142V50.5616C453.702 52.8061 454.701 54.1323 456.701 54.5404V55.8871L450.029 59.6211C449.131 59.2538 448.295 58.6621 447.519 57.8459C446.744 56.9889 446.356 56.1932 446.356 55.4586V37.707C446.356 35.4217 446.091 33.6873 445.56 32.5039C445.071 31.2796 444.173 30.6675 442.867 30.6675L440.847 31.0348V50.5616C440.847 53.0509 441.684 54.4588 443.357 54.7853V56.1319L437.174 59.6211C436.276 59.2538 435.44 58.6621 434.664 57.8459C433.889 56.9889 433.501 56.1932 433.501 55.4586Z" fill="url(#paint9_linear_410_594)" fill-opacity="0.5"/>
<path d="M477.249 24.7299C477.453 24.7299 477.963 25.0564 478.78 25.7093C479.596 26.3214 480.412 27.1988 481.228 28.3414C482.044 29.4433 482.452 30.5247 482.452 31.5857V41.8694C482.452 42.604 481.371 43.5017 479.208 44.5628C477.045 45.6238 474.944 46.5012 472.903 47.1949C470.904 47.8478 469.822 48.1743 469.659 48.1743C469.659 51.3166 471.026 53.2549 473.76 53.9895C475.107 54.316 476.719 54.4792 478.596 54.4792V56.2544C471.903 58.4988 468.333 59.6211 467.884 59.6211C466.66 59.6211 465.415 58.7641 464.15 57.0501C462.885 55.2954 462.252 53.255 462.252 50.9289V30.3614C462.252 30.0758 464.578 29.076 469.23 27.362C473.883 25.6073 476.556 24.7299 477.249 24.7299ZM475.107 34.4627C475.107 33.3201 474.842 32.3611 474.311 31.5857C473.781 30.7695 473.107 30.3614 472.291 30.3614C471.475 30.3614 470.577 30.6675 469.598 31.2796V45.4197C473.271 44.3995 475.107 42.1959 475.107 38.8088V34.4627Z" fill="url(#paint10_linear_410_594)" fill-opacity="0.5"/>
<path d="M487.705 28.4026L494.438 24.7299C494.724 24.8115 495.05 24.9339 495.418 25.0972C495.826 25.2196 496.356 25.6073 497.009 26.2602C497.703 26.9131 498.05 27.6477 498.05 28.4639C498.254 28.3822 499.213 27.7497 500.927 26.5663C502.681 25.342 503.804 24.7299 504.293 24.7299C505.599 24.7299 506.823 25.5869 507.966 27.3008C509.109 29.0148 509.68 30.5859 509.68 32.0142V35.0136L503.375 38.5639L502.335 37.707C502.335 34.2791 502.008 32.3202 501.355 31.8305C500.621 31.3 499.519 31.0348 498.05 31.0348V50.5616C498.05 53.0509 498.886 54.4588 500.559 54.7853V56.1319L494.377 59.6211C493.479 59.2538 492.643 58.6621 491.867 57.8459C491.092 56.9889 490.704 56.1932 490.704 55.4586V35.136C490.704 33.3405 490.378 31.9938 489.725 31.096C489.113 30.1982 488.439 29.7493 487.705 29.7493V28.4026Z" fill="url(#paint11_linear_410_594)" fill-opacity="0.5"/>
<path d="M531.736 32.81V50.1331C531.736 51.643 531.981 52.704 532.47 53.3162C532.96 53.8875 533.715 54.2956 534.735 54.5404V55.8871L528.063 59.6211C527.165 59.2538 526.329 58.6621 525.553 57.8459C524.778 56.9889 524.39 56.2136 524.39 55.5198L516.739 59.6211C516.616 59.5394 516.433 59.4374 516.188 59.315C515.943 59.1518 515.514 58.8457 514.902 58.3968C514.331 57.9071 513.821 57.397 513.372 56.8665C512.148 55.5198 511.536 53.9895 511.536 52.2755V42.2367C511.536 41.5838 512.597 40.7472 514.719 39.727C516.841 38.7068 518.963 37.8702 521.085 37.2173L524.329 36.1766C524.329 33.8506 523.717 32.2386 522.493 31.3408C521.268 30.4023 518.901 29.933 515.392 29.933V28.0966C521.717 25.8521 525.268 24.7299 526.043 24.7299C527.39 24.7299 528.675 25.6073 529.899 27.362C531.124 29.1168 531.736 30.9328 531.736 32.81ZM518.881 50.0719C518.881 51.1329 519.187 52.0103 519.799 52.704C520.452 53.357 521.166 53.6834 521.942 53.6834C522.717 53.6834 523.533 53.3774 524.39 52.7653V38.9312C523.37 39.2985 522.595 39.6045 522.064 39.8494C521.574 40.0942 521.044 40.4819 520.473 41.0124C519.412 41.9918 518.881 43.6854 518.881 46.0931V50.0719Z" fill="url(#paint12_linear_410_594)" fill-opacity="0.5"/>
<path d="M547.661 0V10.7822H557.778L557.166 14.656H547.661V50.5616C547.661 53.0509 548.497 54.4588 550.17 54.7853V56.1319L543.988 59.6211C543.09 59.2538 542.253 58.6621 541.478 57.8459C540.703 56.9889 540.315 56.1932 540.315 55.4586V14.7173H531.684L531.41 11.0882C532.634 11.0882 539.717 11.2719 541.478 10.2138C543.556 8.96491 545.62 1.87719 545.947 0H547.661Z" fill="url(#paint13_linear_410_594)" fill-opacity="0.5"/>
<path d="M556.214 50.684V30.3614C556.214 30.0758 558.54 29.076 563.192 27.362C567.844 25.6073 570.517 24.7299 571.211 24.7299C571.904 24.7299 572.945 25.5665 574.332 27.2396C575.761 28.9127 576.475 30.4227 576.475 31.7693V53.9283C576.475 54.2548 574.23 55.2954 569.742 57.0501C565.293 58.7641 562.559 59.6211 561.539 59.6211C560.56 59.6211 559.417 58.7437 558.111 56.9889C556.846 55.2342 556.214 53.1325 556.214 50.684ZM566.681 53.9895C567.456 53.9895 568.252 53.663 569.068 53.0101V34.9524C569.068 31.9326 568.028 30.4227 565.946 30.4227C565.13 30.4227 564.334 30.7287 563.559 31.3408V49.4598C563.559 52.4796 564.6 53.9895 566.681 53.9895Z" fill="url(#paint14_linear_410_594)" fill-opacity="0.5"/>
<path d="M582.025 28.4026L588.758 24.7299C589.044 24.8115 589.37 24.9339 589.738 25.0972C590.146 25.2196 590.676 25.6073 591.329 26.2602C592.023 26.9131 592.37 27.6477 592.37 28.4639C592.574 28.3822 593.533 27.7497 595.247 26.5663C597.001 25.342 598.124 24.7299 598.613 24.7299C599.919 24.7299 601.143 25.5869 602.286 27.3008C603.429 29.0148 604 30.5859 604 32.0142V35.0136L597.695 38.5639L596.655 37.707C596.655 34.2791 596.328 32.3202 595.675 31.8305C594.941 31.3 593.839 31.0348 592.37 31.0348V50.5616C592.37 53.0509 593.206 54.4588 594.879 54.7853V56.1319L588.697 59.6211C587.799 59.2538 586.963 58.6621 586.187 57.8459C585.412 56.9889 585.024 56.1932 585.024 55.4586V35.136C585.024 33.3405 584.698 31.9938 584.045 31.096C583.433 30.1982 582.759 29.7493 582.025 29.7493V28.4026Z" fill="url(#paint15_linear_410_594)" fill-opacity="0.5"/>
</g>
<path d="M420.047 24.7299C420.251 24.7299 420.761 25.0564 421.577 25.7093C422.393 26.3214 423.209 27.1988 424.025 28.3414C424.842 29.4433 425.25 30.5247 425.25 31.5857V41.8694C425.25 42.604 424.168 43.5017 422.005 44.5628C419.843 45.6238 417.741 46.5012 415.701 47.1949C413.701 47.8478 412.62 48.1743 412.456 48.1743C412.456 51.3166 413.823 53.2549 416.558 53.9895C417.904 54.316 419.516 54.4792 421.393 54.4792V56.2544C414.701 58.4988 411.13 59.6211 410.681 59.6211C409.457 59.6211 408.212 58.7641 406.947 57.0501C405.682 55.2954 405.05 53.255 405.05 50.9289V30.3614C405.05 30.0758 407.376 29.076 412.028 27.362C416.68 25.6073 419.353 24.7299 420.047 24.7299ZM417.904 34.4627C417.904 33.3201 417.639 32.3611 417.108 31.5857C416.578 30.7695 415.905 30.3614 415.088 30.3614C414.272 30.3614 413.374 30.6675 412.395 31.2796V45.4197C416.068 44.3995 417.904 42.1959 417.904 38.8088V34.4627Z" fill="url(#paint16_linear_410_594)"/>
<path d="M433.501 55.4586V34.7075C433.501 33.3609 433.216 32.1978 432.644 31.2184C432.073 30.239 431.359 29.7493 430.502 29.7493V28.4026C430.788 28.3618 433.012 27.1172 437.174 24.6687C437.46 24.7503 437.807 24.8727 438.215 25.036C438.623 25.1584 439.153 25.5461 439.806 26.199C440.5 26.8519 440.847 27.6069 440.847 28.4639C441.092 28.3414 441.786 27.9537 442.928 27.3008C445.948 25.5869 447.744 24.7299 448.315 24.7299C449.621 24.7299 450.845 25.5869 451.988 27.3008C453.13 29.0148 453.702 30.5859 453.702 32.0142V50.5616C453.702 52.8061 454.701 54.1323 456.701 54.5404V55.8871L450.029 59.6211C449.131 59.2538 448.295 58.6621 447.519 57.8459C446.744 56.9889 446.356 56.1932 446.356 55.4586V37.707C446.356 35.4217 446.091 33.6873 445.56 32.5039C445.071 31.2796 444.173 30.6675 442.867 30.6675L440.847 31.0348V50.5616C440.847 53.0509 441.684 54.4588 443.357 54.7853V56.1319L437.174 59.6211C436.276 59.2538 435.44 58.6621 434.664 57.8459C433.889 56.9889 433.501 56.1932 433.501 55.4586Z" fill="url(#paint17_linear_410_594)"/>
<path d="M477.249 24.7299C477.453 24.7299 477.963 25.0564 478.78 25.7093C479.596 26.3214 480.412 27.1988 481.228 28.3414C482.044 29.4433 482.452 30.5247 482.452 31.5857V41.8694C482.452 42.604 481.371 43.5017 479.208 44.5628C477.045 45.6238 474.944 46.5012 472.903 47.1949C470.904 47.8478 469.822 48.1743 469.659 48.1743C469.659 51.3166 471.026 53.2549 473.76 53.9895C475.107 54.316 476.719 54.4792 478.596 54.4792V56.2544C471.903 58.4988 468.333 59.6211 467.884 59.6211C466.66 59.6211 465.415 58.7641 464.15 57.0501C462.885 55.2954 462.252 53.255 462.252 50.9289V30.3614C462.252 30.0758 464.578 29.076 469.23 27.362C473.883 25.6073 476.556 24.7299 477.249 24.7299ZM475.107 34.4627C475.107 33.3201 474.842 32.3611 474.311 31.5857C473.781 30.7695 473.107 30.3614 472.291 30.3614C471.475 30.3614 470.577 30.6675 469.598 31.2796V45.4197C473.271 44.3995 475.107 42.1959 475.107 38.8088V34.4627Z" fill="url(#paint18_linear_410_594)"/>
<path d="M487.705 28.4026L494.438 24.7299C494.724 24.8115 495.05 24.9339 495.418 25.0972C495.826 25.2196 496.356 25.6073 497.009 26.2602C497.703 26.9131 498.05 27.6477 498.05 28.4639C498.254 28.3822 499.213 27.7497 500.927 26.5663C502.681 25.342 503.804 24.7299 504.293 24.7299C505.599 24.7299 506.823 25.5869 507.966 27.3008C509.109 29.0148 509.68 30.5859 509.68 32.0142V35.0136L503.375 38.5639L502.335 37.707C502.335 34.2791 502.008 32.3202 501.355 31.8305C500.621 31.3 499.519 31.0348 498.05 31.0348V50.5616C498.05 53.0509 498.886 54.4588 500.559 54.7853V56.1319L494.377 59.6211C493.479 59.2538 492.643 58.6621 491.867 57.8459C491.092 56.9889 490.704 56.1932 490.704 55.4586V35.136C490.704 33.3405 490.378 31.9938 489.725 31.096C489.113 30.1982 488.439 29.7493 487.705 29.7493V28.4026Z" fill="url(#paint19_linear_410_594)"/>
<path d="M531.736 32.81V50.1331C531.736 51.643 531.981 52.704 532.47 53.3162C532.96 53.8875 533.715 54.2956 534.735 54.5404V55.8871L528.063 59.6211C527.165 59.2538 526.329 58.6621 525.553 57.8459C524.778 56.9889 524.39 56.2136 524.39 55.5198L516.739 59.6211C516.616 59.5394 516.433 59.4374 516.188 59.315C515.943 59.1518 515.514 58.8457 514.902 58.3968C514.331 57.9071 513.821 57.397 513.372 56.8665C512.148 55.5198 511.536 53.9895 511.536 52.2755V42.2367C511.536 41.5838 512.597 40.7472 514.719 39.727C516.841 38.7068 518.963 37.8702 521.085 37.2173L524.329 36.1766C524.329 33.8506 523.717 32.2386 522.493 31.3408C521.268 30.4023 518.901 29.933 515.392 29.933V28.0966C521.717 25.8521 525.268 24.7299 526.043 24.7299C527.39 24.7299 528.675 25.6073 529.899 27.362C531.124 29.1168 531.736 30.9328 531.736 32.81ZM518.881 50.0719C518.881 51.1329 519.187 52.0103 519.799 52.704C520.452 53.357 521.166 53.6834 521.942 53.6834C522.717 53.6834 523.533 53.3774 524.39 52.7653V38.9312C523.37 39.2985 522.595 39.6045 522.064 39.8494C521.574 40.0942 521.044 40.4819 520.473 41.0124C519.412 41.9918 518.881 43.6854 518.881 46.0931V50.0719Z" fill="url(#paint20_linear_410_594)"/>
<path d="M547.661 0V10.7822H557.778L557.166 14.656H547.661V50.5616C547.661 53.0509 548.497 54.4588 550.17 54.7853V56.1319L543.988 59.6211C543.09 59.2538 542.253 58.6621 541.478 57.8459C540.703 56.9889 540.315 56.1932 540.315 55.4586V14.7173H531.684L531.41 11.0882C532.634 11.0882 539.717 11.2719 541.478 10.2138C543.556 8.96491 545.62 1.87719 545.947 0H547.661Z" fill="url(#paint21_linear_410_594)"/>
<path d="M556.214 50.684V30.3614C556.214 30.0758 558.54 29.076 563.192 27.362C567.844 25.6073 570.517 24.7299 571.211 24.7299C571.904 24.7299 572.945 25.5665 574.332 27.2396C575.761 28.9127 576.475 30.4227 576.475 31.7693V53.9283C576.475 54.2548 574.23 55.2954 569.742 57.0501C565.293 58.7641 562.559 59.6211 561.539 59.6211C560.56 59.6211 559.417 58.7437 558.111 56.9889C556.846 55.2342 556.214 53.1325 556.214 50.684ZM566.681 53.9895C567.456 53.9895 568.252 53.663 569.068 53.0101V34.9524C569.068 31.9326 568.028 30.4227 565.946 30.4227C565.13 30.4227 564.334 30.7287 563.559 31.3408V49.4598C563.559 52.4796 564.6 53.9895 566.681 53.9895Z" fill="url(#paint22_linear_410_594)"/>
<path d="M582.025 28.4026L588.758 24.7299C589.044 24.8115 589.37 24.9339 589.738 25.0972C590.146 25.2196 590.676 25.6073 591.329 26.2602C592.023 26.9131 592.37 27.6477 592.37 28.4639C592.574 28.3822 593.533 27.7497 595.247 26.5663C597.001 25.342 598.124 24.7299 598.613 24.7299C599.919 24.7299 601.143 25.5869 602.286 27.3008C603.429 29.0148 604 30.5859 604 32.0142V35.0136L597.695 38.5639L596.655 37.707C596.655 34.2791 596.328 32.3202 595.675 31.8305C594.941 31.3 593.839 31.0348 592.37 31.0348V50.5616C592.37 53.0509 593.206 54.4588 594.879 54.7853V56.1319L588.697 59.6211C587.799 59.2538 586.963 58.6621 586.187 57.8459C585.412 56.9889 585.024 56.1932 585.024 55.4586V35.136C585.024 33.3405 584.698 31.9938 584.045 31.096C583.433 30.1982 582.759 29.7493 582.025 29.7493V28.4026Z" fill="url(#paint23_linear_410_594)"/>
<g filter="url(#filter2_d_410_594)">
<path d="M373.633 10.8975C373.283 12.9963 372.933 15.0367 372.583 17.0188C372.292 18.9426 372.059 21.0413 371.884 23.3149C371.709 25.5303 371.621 28.1537 371.621 31.1851C371.621 35.9073 371.913 39.6092 372.496 42.2909C373.079 44.9143 373.807 46.8381 374.682 48.0623C375.556 49.2866 376.431 50.161 377.305 50.6857V12.7339C377.305 12.0926 377.539 11.0724 378.005 9.67329C378.53 8.27414 379.083 6.78755 379.666 5.21351C380.191 5.03862 380.628 4.95117 380.978 4.95117C381.444 4.95117 382.319 4.98032 383.601 5.03862C384.942 5.09692 386.458 5.18437 388.149 5.30096C389.898 5.35926 391.647 5.4467 393.396 5.5633C395.203 5.6216 396.748 5.70904 398.03 5.82564L396.981 20.9539H392.259L391.209 12.0343C390.51 11.8595 389.548 11.7137 388.324 11.5971C387.158 11.4222 385.963 11.2765 384.738 11.1599C383.514 11.0433 382.552 10.9558 381.853 10.8975V46.8381C381.853 47.5376 381.27 49.1408 380.104 51.6476C381.503 51.9974 383.223 52.2306 385.263 52.3472C387.362 52.4055 389.256 52.4055 390.947 52.3472C391.064 51.7642 391.151 50.6857 391.209 49.1117C391.326 47.5376 391.413 45.9345 391.472 44.3021C391.53 42.6115 391.53 41.3581 391.472 40.5419L385.001 38.793L386.137 31.0102C387.77 31.0685 389.519 31.2434 391.384 31.5349C393.25 31.7681 394.882 32.0888 396.281 32.4968C397.739 32.8466 398.642 33.2839 398.992 33.8085C399.109 34.9745 399.167 36.5485 399.167 38.5307C399.225 40.5128 399.225 42.5823 399.167 44.7394C399.167 46.8381 399.109 48.6745 398.992 50.2485C398.934 51.8225 398.817 52.8136 398.642 53.2217C398.118 53.6881 397.185 54.271 395.844 54.9706C394.561 55.6119 393.104 56.2823 391.472 56.9819C389.898 57.6232 388.44 58.1478 387.099 58.5559C385.759 59.0223 384.797 59.2555 384.214 59.2555C383.281 59.2555 382.057 59.1389 380.541 58.9057C379.083 58.6725 377.509 58.3227 375.819 57.8563C374.186 57.3317 372.642 56.6904 371.184 55.9325C369.727 55.1164 368.59 54.1836 367.774 53.1342C366.316 51.1521 365.15 48.6745 364.276 45.7013C363.401 42.6698 362.964 38.8513 362.964 34.2458C362.964 30.2232 363.197 26.5505 363.664 23.2275C364.188 19.9045 364.83 17.252 365.588 15.2699C366.229 14.3371 367.074 13.346 368.123 12.2967C369.173 11.189 370.251 10.1688 371.359 9.23605L373.633 10.8975Z" fill="url(#paint24_linear_410_594)"/>
</g>
<g style="mix-blend-mode:soft-light" filter="url(#filter3_b_410_594)">
<path d="M373.633 10.8975C373.283 12.9963 372.933 15.0367 372.583 17.0188C372.292 18.9426 372.059 21.0413 371.884 23.3149C371.709 25.5303 371.621 28.1537 371.621 31.1851C371.621 35.9073 371.913 39.6092 372.496 42.2909C373.079 44.9143 373.807 46.8381 374.682 48.0623C375.556 49.2866 376.431 50.161 377.305 50.6857V12.7339C377.305 12.0926 377.539 11.0724 378.005 9.67329C378.53 8.27414 379.083 6.78755 379.666 5.21351C380.191 5.03862 380.628 4.95117 380.978 4.95117C381.444 4.95117 382.319 4.98032 383.601 5.03862C384.942 5.09692 386.458 5.18437 388.149 5.30096C389.898 5.35926 391.647 5.4467 393.396 5.5633C395.203 5.6216 396.748 5.70904 398.03 5.82564L396.981 20.9539H392.259L391.209 12.0343C390.51 11.8595 389.548 11.7137 388.324 11.5971C387.158 11.4222 385.963 11.2765 384.738 11.1599C383.514 11.0433 382.552 10.9558 381.853 10.8975V46.8381C381.853 47.5376 381.27 49.1408 380.104 51.6476C381.503 51.9974 383.223 52.2306 385.263 52.3472C387.362 52.4055 389.256 52.4055 390.947 52.3472C391.064 51.7642 391.151 50.6857 391.209 49.1117C391.326 47.5376 391.413 45.9345 391.472 44.3021C391.53 42.6115 391.53 41.3581 391.472 40.5419L385.001 38.793L386.137 31.0102C387.77 31.0685 389.519 31.2434 391.384 31.5349C393.25 31.7681 394.882 32.0888 396.281 32.4968C397.739 32.8466 398.642 33.2839 398.992 33.8085C399.109 34.9745 399.167 36.5485 399.167 38.5307C399.225 40.5128 399.225 42.5823 399.167 44.7394C399.167 46.8381 399.109 48.6745 398.992 50.2485C398.934 51.8225 398.817 52.8136 398.642 53.2217C398.118 53.6881 397.185 54.271 395.844 54.9706C394.561 55.6119 393.104 56.2823 391.472 56.9819C389.898 57.6232 388.44 58.1478 387.099 58.5559C385.759 59.0223 384.797 59.2555 384.214 59.2555C383.281 59.2555 382.057 59.1389 380.541 58.9057C379.083 58.6725 377.509 58.3227 375.819 57.8563C374.186 57.3317 372.642 56.6904 371.184 55.9325C369.727 55.1164 368.59 54.1836 367.774 53.1342C366.316 51.1521 365.15 48.6745 364.276 45.7013C363.401 42.6698 362.964 38.8513 362.964 34.2458C362.964 30.2232 363.197 26.5505 363.664 23.2275C364.188 19.9045 364.83 17.252 365.588 15.2699C366.229 14.3371 367.074 13.346 368.123 12.2967C369.173 11.189 370.251 10.1688 371.359 9.23605L373.633 10.8975Z" fill="black" fill-opacity="0.5"/>
</g>
<path d="M373.633 10.8975C373.283 12.9963 372.933 15.0367 372.583 17.0188C372.292 18.9426 372.059 21.0413 371.884 23.3149C371.709 25.5303 371.621 28.1537 371.621 31.1851C371.621 35.9073 371.913 39.6092 372.496 42.2909C373.079 44.9143 373.807 46.8381 374.682 48.0623C375.556 49.2866 376.431 50.161 377.305 50.6857V12.7339C377.305 12.0926 377.539 11.0724 378.005 9.67329C378.53 8.27414 379.083 6.78755 379.666 5.21351C380.191 5.03862 380.628 4.95117 380.978 4.95117C381.444 4.95117 382.319 4.98032 383.601 5.03862C384.942 5.09692 386.458 5.18437 388.149 5.30096C389.898 5.35926 391.647 5.4467 393.396 5.5633C395.203 5.6216 396.748 5.70904 398.03 5.82564L396.981 20.9539H392.259L391.209 12.0343C390.51 11.8595 389.548 11.7137 388.324 11.5971C387.158 11.4222 385.963 11.2765 384.738 11.1599C383.514 11.0433 382.552 10.9558 381.853 10.8975V46.8381C381.853 47.5376 381.27 49.1408 380.104 51.6476C381.503 51.9974 383.223 52.2306 385.263 52.3472C387.362 52.4055 389.256 52.4055 390.947 52.3472C391.064 51.7642 391.151 50.6857 391.209 49.1117C391.326 47.5376 391.413 45.9345 391.472 44.3021C391.53 42.6115 391.53 41.3581 391.472 40.5419L385.001 38.793L386.137 31.0102C387.77 31.0685 389.519 31.2434 391.384 31.5349C393.25 31.7681 394.882 32.0888 396.281 32.4968C397.739 32.8466 398.642 33.2839 398.992 33.8085C399.109 34.9745 399.167 36.5485 399.167 38.5307C399.225 40.5128 399.225 42.5823 399.167 44.7394C399.167 46.8381 399.109 48.6745 398.992 50.2485C398.934 51.8225 398.817 52.8136 398.642 53.2217C398.118 53.6881 397.185 54.271 395.844 54.9706C394.561 55.6119 393.104 56.2823 391.472 56.9819C389.898 57.6232 388.44 58.1478 387.099 58.5559C385.759 59.0223 384.797 59.2555 384.214 59.2555C383.281 59.2555 382.057 59.1389 380.541 58.9057C379.083 58.6725 377.509 58.3227 375.819 57.8563C374.186 57.3317 372.642 56.6904 371.184 55.9325C369.727 55.1164 368.59 54.1836 367.774 53.1342C366.316 51.1521 365.15 48.6745 364.276 45.7013C363.401 42.6698 362.964 38.8513 362.964 34.2458C362.964 30.2232 363.197 26.5505 363.664 23.2275C364.188 19.9045 364.83 17.252 365.588 15.2699C366.229 14.3371 367.074 13.346 368.123 12.2967C369.173 11.189 370.251 10.1688 371.359 9.23605L373.633 10.8975Z" fill="url(#paint25_linear_410_594)"/>
<g filter="url(#filter4_d_410_594)">
<path d="M270.433 33.0272V50.6262C270.433 52.1601 270.682 53.2381 271.179 53.8599C271.677 54.4403 272.443 54.8549 273.48 55.1037V56.4718L266.702 60.2652C265.789 59.8921 264.94 59.2909 264.152 58.4618C263.364 57.5912 262.97 56.8034 262.97 56.0987L255.197 60.2652C255.073 60.1823 254.886 60.0786 254.637 59.9543C254.388 59.7884 253.953 59.4775 253.331 59.0215C252.751 58.524 252.233 58.0057 251.777 57.4668C250.533 56.0987 249.911 54.544 249.911 52.8027V42.6041C249.911 41.9407 250.989 41.0908 253.145 40.0544C255.301 39.0179 257.456 38.168 259.612 37.5047L262.908 36.4475C262.908 34.0844 262.286 32.4468 261.043 31.5347C259.799 30.5812 257.394 30.1044 253.829 30.1044V28.2388C260.255 25.9586 263.862 24.8185 264.649 24.8185C266.017 24.8185 267.323 25.7099 268.567 27.4926C269.811 29.2753 270.433 31.1202 270.433 33.0272ZM257.373 50.564C257.373 51.6419 257.684 52.5333 258.306 53.2381C258.97 53.9014 259.695 54.233 260.483 54.233C261.271 54.233 262.1 53.9221 262.97 53.3002V39.2459C261.934 39.6191 261.146 39.93 260.607 40.1788C260.11 40.4275 259.571 40.8214 258.99 41.3603C257.912 42.3553 257.373 44.0758 257.373 46.5218V50.564Z" fill="#D6BA6B"/>
<path d="M279.149 56.0365V34.955C279.149 33.5869 278.858 32.4054 278.278 31.4104C277.698 30.4154 276.972 29.9179 276.102 29.9179V28.5498C276.392 28.5083 278.651 27.2438 282.88 24.7563C283.17 24.8393 283.523 24.9636 283.937 25.1295C284.352 25.2538 284.891 25.6477 285.554 26.311C286.259 26.9744 286.611 27.7413 286.611 28.612C286.86 28.4876 287.565 28.0937 288.726 27.4304C291.793 25.6892 293.68 24.8185 294.385 24.8185C295.131 24.8185 295.939 25.1917 296.81 25.9379C297.722 26.6841 298.406 27.5755 298.862 28.612C298.945 28.5705 299.795 28.1352 301.412 27.306C304.645 25.6477 306.594 24.8185 307.257 24.8185C308.584 24.8185 309.828 25.6892 310.988 27.4304C312.149 29.1716 312.73 30.7678 312.73 32.2188V51.0615C312.73 53.3417 313.745 54.6891 315.777 55.1037V56.4718L308.999 60.2652C308.086 59.8921 307.237 59.2909 306.449 58.4618C305.661 57.5912 305.267 56.7827 305.267 56.0365V37.6913C305.267 34.9965 304.915 33.2138 304.21 32.3432C303.505 31.4311 302.593 30.9751 301.474 30.9751L299.67 31.3482V51.0615C299.67 53.3417 300.686 54.6891 302.718 55.1037V56.4718L295.939 60.2652C295.027 59.8921 294.177 59.2909 293.39 58.4618C292.602 57.5912 292.208 56.7827 292.208 56.0365V38.0022C292.208 33.2345 291.068 30.8507 288.788 30.8507L286.611 31.2238V51.0615C286.611 53.5905 287.461 55.0208 289.161 55.3524V56.7205L282.88 60.2652C281.968 59.8921 281.118 59.2909 280.33 58.4618C279.543 57.5912 279.149 56.7827 279.149 56.0365Z" fill="#D6BA6B"/>
<path d="M336.65 24.8185C336.857 24.8185 337.375 25.1502 338.205 25.8135C339.034 26.4354 339.863 27.3267 340.692 28.4876C341.521 29.6069 341.936 30.7056 341.936 31.7835V42.2309C341.936 42.9772 340.837 43.8893 338.64 44.9672C336.443 46.0451 334.308 46.9364 332.235 47.6412C330.203 48.3045 329.105 48.6362 328.939 48.6362C328.939 51.8285 330.328 53.7977 333.105 54.544C334.473 54.8756 336.111 55.0415 338.018 55.0415V56.8449C331.219 59.1251 327.591 60.2652 327.135 60.2652C325.892 60.2652 324.627 59.3946 323.342 57.6533C322.057 55.8706 321.414 53.7977 321.414 51.4346V30.5398C321.414 30.2495 323.777 29.2338 328.503 27.4926C333.23 25.7099 335.945 24.8185 336.65 24.8185ZM334.473 34.7063C334.473 33.5455 334.204 32.5712 333.665 31.7835C333.126 30.9543 332.442 30.5398 331.613 30.5398C330.784 30.5398 329.872 30.8507 328.877 31.4726V45.8378C332.608 44.8013 334.473 42.5626 334.473 39.1216V34.7063Z" fill="#D6BA6B"/>
</g>
<g style="mix-blend-mode:soft-light" filter="url(#filter5_b_410_594)">
<path d="M270.433 33.0272V50.6262C270.433 52.1601 270.682 53.2381 271.179 53.8599C271.677 54.4403 272.443 54.8549 273.48 55.1037V56.4718L266.702 60.2652C265.789 59.8921 264.94 59.2909 264.152 58.4618C263.364 57.5912 262.97 56.8034 262.97 56.0987L255.197 60.2652C255.073 60.1823 254.886 60.0786 254.637 59.9543C254.388 59.7884 253.953 59.4775 253.331 59.0215C252.751 58.524 252.233 58.0057 251.777 57.4668C250.533 56.0987 249.911 54.544 249.911 52.8027V42.6041C249.911 41.9407 250.989 41.0908 253.145 40.0544C255.301 39.0179 257.456 38.168 259.612 37.5047L262.908 36.4475C262.908 34.0844 262.286 32.4468 261.043 31.5347C259.799 30.5812 257.394 30.1044 253.829 30.1044V28.2388C260.255 25.9586 263.862 24.8185 264.649 24.8185C266.017 24.8185 267.323 25.7099 268.567 27.4926C269.811 29.2753 270.433 31.1202 270.433 33.0272ZM257.373 50.564C257.373 51.6419 257.684 52.5333 258.306 53.2381C258.97 53.9014 259.695 54.233 260.483 54.233C261.271 54.233 262.1 53.9221 262.97 53.3002V39.2459C261.934 39.6191 261.146 39.93 260.607 40.1788C260.11 40.4275 259.571 40.8214 258.99 41.3603C257.912 42.3553 257.373 44.0758 257.373 46.5218V50.564Z" fill="black" fill-opacity="0.5"/>
<path d="M279.149 56.0365V34.955C279.149 33.5869 278.858 32.4054 278.278 31.4104C277.698 30.4154 276.972 29.9179 276.102 29.9179V28.5498C276.392 28.5083 278.651 27.2438 282.88 24.7563C283.17 24.8393 283.523 24.9636 283.937 25.1295C284.352 25.2538 284.891 25.6477 285.554 26.311C286.259 26.9744 286.611 27.7413 286.611 28.612C286.86 28.4876 287.565 28.0937 288.726 27.4304C291.793 25.6892 293.68 24.8185 294.385 24.8185C295.131 24.8185 295.939 25.1917 296.81 25.9379C297.722 26.6841 298.406 27.5755 298.862 28.612C298.945 28.5705 299.795 28.1352 301.412 27.306C304.645 25.6477 306.594 24.8185 307.257 24.8185C308.584 24.8185 309.828 25.6892 310.988 27.4304C312.149 29.1716 312.73 30.7678 312.73 32.2188V51.0615C312.73 53.3417 313.745 54.6891 315.777 55.1037V56.4718L308.999 60.2652C308.086 59.8921 307.237 59.2909 306.449 58.4618C305.661 57.5912 305.267 56.7827 305.267 56.0365V37.6913C305.267 34.9965 304.915 33.2138 304.21 32.3432C303.505 31.4311 302.593 30.9751 301.474 30.9751L299.67 31.3482V51.0615C299.67 53.3417 300.686 54.6891 302.718 55.1037V56.4718L295.939 60.2652C295.027 59.8921 294.177 59.2909 293.39 58.4618C292.602 57.5912 292.208 56.7827 292.208 56.0365V38.0022C292.208 33.2345 291.068 30.8507 288.788 30.8507L286.611 31.2238V51.0615C286.611 53.5905 287.461 55.0208 289.161 55.3524V56.7205L282.88 60.2652C281.968 59.8921 281.118 59.2909 280.33 58.4618C279.543 57.5912 279.149 56.7827 279.149 56.0365Z" fill="black" fill-opacity="0.5"/>
<path d="M336.65 24.8185C336.857 24.8185 337.375 25.1502 338.205 25.8135C339.034 26.4354 339.863 27.3267 340.692 28.4876C341.521 29.6069 341.936 30.7056 341.936 31.7835V42.2309C341.936 42.9772 340.837 43.8893 338.64 44.9672C336.443 46.0451 334.308 46.9364 332.235 47.6412C330.203 48.3045 329.105 48.6362 328.939 48.6362C328.939 51.8285 330.328 53.7977 333.105 54.544C334.473 54.8756 336.111 55.0415 338.018 55.0415V56.8449C331.219 59.1251 327.591 60.2652 327.135 60.2652C325.892 60.2652 324.627 59.3946 323.342 57.6533C322.057 55.8706 321.414 53.7977 321.414 51.4346V30.5398C321.414 30.2495 323.777 29.2338 328.503 27.4926C333.23 25.7099 335.945 24.8185 336.65 24.8185ZM334.473 34.7063C334.473 33.5455 334.204 32.5712 333.665 31.7835C333.126 30.9543 332.442 30.5398 331.613 30.5398C330.784 30.5398 329.872 30.8507 328.877 31.4726V45.8378C332.608 44.8013 334.473 42.5626 334.473 39.1216V34.7063Z" fill="black" fill-opacity="0.5"/>
</g>
<path d="M270.433 33.0272V50.6262C270.433 52.1601 270.682 53.2381 271.179 53.8599C271.677 54.4403 272.443 54.8549 273.48 55.1037V56.4718L266.702 60.2652C265.789 59.8921 264.94 59.2909 264.152 58.4618C263.364 57.5912 262.97 56.8034 262.97 56.0987L255.197 60.2652C255.073 60.1823 254.886 60.0786 254.637 59.9543C254.388 59.7884 253.953 59.4775 253.331 59.0215C252.751 58.524 252.233 58.0057 251.777 57.4668C250.533 56.0987 249.911 54.544 249.911 52.8027V42.6041C249.911 41.9407 250.989 41.0908 253.145 40.0544C255.301 39.0179 257.456 38.168 259.612 37.5047L262.908 36.4475C262.908 34.0844 262.286 32.4468 261.043 31.5347C259.799 30.5812 257.394 30.1044 253.829 30.1044V28.2388C260.255 25.9586 263.862 24.8185 264.649 24.8185C266.017 24.8185 267.323 25.7099 268.567 27.4926C269.811 29.2753 270.433 31.1202 270.433 33.0272ZM257.373 50.564C257.373 51.6419 257.684 52.5333 258.306 53.2381C258.97 53.9014 259.695 54.233 260.483 54.233C261.271 54.233 262.1 53.9221 262.97 53.3002V39.2459C261.934 39.6191 261.146 39.93 260.607 40.1788C260.11 40.4275 259.571 40.8214 258.99 41.3603C257.912 42.3553 257.373 44.0758 257.373 46.5218V50.564Z" fill="url(#paint26_linear_410_594)"/>
<path d="M279.149 56.0365V34.955C279.149 33.5869 278.858 32.4054 278.278 31.4104C277.698 30.4154 276.972 29.9179 276.102 29.9179V28.5498C276.392 28.5083 278.651 27.2438 282.88 24.7563C283.17 24.8393 283.523 24.9636 283.937 25.1295C284.352 25.2538 284.891 25.6477 285.554 26.311C286.259 26.9744 286.611 27.7413 286.611 28.612C286.86 28.4876 287.565 28.0937 288.726 27.4304C291.793 25.6892 293.68 24.8185 294.385 24.8185C295.131 24.8185 295.939 25.1917 296.81 25.9379C297.722 26.6841 298.406 27.5755 298.862 28.612C298.945 28.5705 299.795 28.1352 301.412 27.306C304.645 25.6477 306.594 24.8185 307.257 24.8185C308.584 24.8185 309.828 25.6892 310.988 27.4304C312.149 29.1716 312.73 30.7678 312.73 32.2188V51.0615C312.73 53.3417 313.745 54.6891 315.777 55.1037V56.4718L308.999 60.2652C308.086 59.8921 307.237 59.2909 306.449 58.4618C305.661 57.5912 305.267 56.7827 305.267 56.0365V37.6913C305.267 34.9965 304.915 33.2138 304.21 32.3432C303.505 31.4311 302.593 30.9751 301.474 30.9751L299.67 31.3482V51.0615C299.67 53.3417 300.686 54.6891 302.718 55.1037V56.4718L295.939 60.2652C295.027 59.8921 294.177 59.2909 293.39 58.4618C292.602 57.5912 292.208 56.7827 292.208 56.0365V38.0022C292.208 33.2345 291.068 30.8507 288.788 30.8507L286.611 31.2238V51.0615C286.611 53.5905 287.461 55.0208 289.161 55.3524V56.7205L282.88 60.2652C281.968 59.8921 281.118 59.2909 280.33 58.4618C279.543 57.5912 279.149 56.7827 279.149 56.0365Z" fill="url(#paint27_linear_410_594)"/>
<path d="M336.65 24.8185C336.857 24.8185 337.375 25.1502 338.205 25.8135C339.034 26.4354 339.863 27.3267 340.692 28.4876C341.521 29.6069 341.936 30.7056 341.936 31.7835V42.2309C341.936 42.9772 340.837 43.8893 338.64 44.9672C336.443 46.0451 334.308 46.9364 332.235 47.6412C330.203 48.3045 329.105 48.6362 328.939 48.6362C328.939 51.8285 330.328 53.7977 333.105 54.544C334.473 54.8756 336.111 55.0415 338.018 55.0415V56.8449C331.219 59.1251 327.591 60.2652 327.135 60.2652C325.892 60.2652 324.627 59.3946 323.342 57.6533C322.057 55.8706 321.414 53.7977 321.414 51.4346V30.5398C321.414 30.2495 323.777 29.2338 328.503 27.4926C333.23 25.7099 335.945 24.8185 336.65 24.8185ZM334.473 34.7063C334.473 33.5455 334.204 32.5712 333.665 31.7835C333.126 30.9543 332.442 30.5398 331.613 30.5398C330.784 30.5398 329.872 30.8507 328.877 31.4726V45.8378C332.608 44.8013 334.473 42.5626 334.473 39.1216V34.7063Z" fill="url(#paint28_linear_410_594)"/>
<g filter="url(#filter6_d_410_594)">
<path d="M232.685 57.1503V17.8836C232.685 15.4553 232.27 13.8266 231.441 12.9974C230.612 12.109 229.279 11.6648 227.443 11.6648C226.614 11.6648 225.726 11.8721 224.778 12.2867C223.83 12.7013 222.912 13.1751 222.024 13.7081V50.3985C222.024 50.7539 221.876 51.4054 221.58 52.353C221.284 53.2414 220.81 54.2778 220.158 55.4624L218.471 58.7494C217.878 58.8086 216.96 58.9271 215.717 59.1047C214.532 59.2824 213.318 59.4305 212.074 59.5489C210.83 59.7266 209.735 59.8747 208.787 59.9931C207.899 60.1116 207.395 60.1708 207.277 60.1708C207.099 60.1708 206.773 59.9635 206.3 59.5489C205.826 59.1344 205.352 58.6902 204.878 58.2164C204.464 57.7425 204.256 57.4168 204.256 57.2391V11.1318L198.748 9.79923V6.33452C199.696 6.15684 200.969 5.97916 202.568 5.80149C204.227 5.56458 205.767 5.3869 207.188 5.26845C208.609 5.09078 209.439 5.00194 209.675 5.00194C209.853 5.00194 210.179 5.20923 210.653 5.62381C211.127 6.03839 211.541 6.51219 211.896 7.04523C212.311 7.51903 212.518 7.84478 212.518 8.02246V54.1298L217.404 55.0182V11.1318C218.411 10.4803 219.655 9.68078 221.136 8.73316C222.616 7.78555 223.979 6.95639 225.222 6.24568C226.525 5.47575 227.325 5.06116 227.621 5.00194C229.22 4.88349 230.967 4.97233 232.862 5.26845C234.817 5.56458 236.416 6.09762 237.66 6.86755C238.607 7.99284 239.377 9.53272 239.97 11.4872C240.621 13.4416 240.947 15.7514 240.947 18.4166V54.0409L246.455 55.3735V58.8382C245.744 58.9567 244.826 59.1047 243.701 59.2824C242.575 59.4009 241.421 59.5193 240.236 59.6378C239.052 59.8155 238.015 59.9339 237.127 59.9931C236.238 60.1116 235.705 60.1708 235.528 60.1708C235.35 60.1708 235.024 59.9339 234.55 59.4601C234.077 59.0455 233.632 58.6013 233.218 58.1275C232.862 57.6537 232.685 57.328 232.685 57.1503Z" fill="url(#paint29_linear_410_594)"/>
</g>
<g style="mix-blend-mode:soft-light" filter="url(#filter7_b_410_594)">
<path d="M232.685 57.9755V18.7088C232.685 16.2805 232.27 14.6518 231.441 13.8226C230.612 12.9342 229.279 12.49 227.443 12.49C226.614 12.49 225.726 12.6973 224.778 13.1119C223.83 13.5265 222.912 14.0003 222.024 14.5333V51.2237C222.024 51.5791 221.876 52.2306 221.58 53.1782C221.284 54.0666 220.81 55.103 220.158 56.2875L218.471 59.5746C217.878 59.6338 216.96 59.7523 215.717 59.9299C214.532 60.1076 213.318 60.2557 212.074 60.3741C210.83 60.5518 209.735 60.6999 208.787 60.8183C207.899 60.9368 207.395 60.996 207.277 60.996C207.099 60.996 206.773 60.7887 206.3 60.3741C205.826 59.9596 205.352 59.5154 204.878 59.0415C204.464 58.5677 204.256 58.242 204.256 58.0643V11.957L198.748 10.6244V7.15972C199.696 6.98204 200.969 6.80436 202.568 6.62668C204.227 6.38978 205.767 6.2121 207.188 6.09365C208.609 5.91597 209.439 5.82713 209.675 5.82713C209.853 5.82713 210.179 6.03442 210.653 6.44901C211.127 6.86359 211.541 7.33739 211.896 7.87042C212.311 8.34423 212.518 8.66997 212.518 8.84765V54.955L217.404 55.8434V11.957C218.411 11.3055 219.655 10.506 221.136 9.55836C222.616 8.61075 223.979 7.78159 225.222 7.07087C226.525 6.30094 227.325 5.88636 227.621 5.82713C229.22 5.70868 230.967 5.79752 232.862 6.09365C234.817 6.38978 236.416 6.92281 237.66 7.69275C238.607 8.81804 239.377 10.3579 239.97 12.3124C240.621 14.2668 240.947 16.5766 240.947 19.2418V54.8661L246.455 56.1987V59.6634C245.744 59.7819 244.826 59.9299 243.701 60.1076C242.575 60.2261 241.421 60.3445 240.236 60.463C239.052 60.6407 238.015 60.7591 237.127 60.8183C236.238 60.9368 235.705 60.996 235.528 60.996C235.35 60.996 235.024 60.7591 234.55 60.2853C234.077 59.8707 233.632 59.4265 233.218 58.9527C232.862 58.4789 232.685 58.1532 232.685 57.9755Z" fill="black" fill-opacity="0.5"/>
</g>
<path d="M232.685 57.1503V17.8836C232.685 15.4553 232.27 13.8266 231.441 12.9974C230.612 12.109 229.279 11.6648 227.443 11.6648C226.614 11.6648 225.726 11.8721 224.778 12.2867C223.83 12.7013 222.912 13.1751 222.024 13.7081V50.3985C222.024 50.7539 221.876 51.4054 221.58 52.353C221.284 53.2414 220.81 54.2778 220.158 55.4624L218.471 58.7494C217.878 58.8086 216.96 58.9271 215.717 59.1047C214.532 59.2824 213.318 59.4305 212.074 59.5489C210.83 59.7266 209.735 59.8747 208.787 59.9931C207.899 60.1116 207.395 60.1708 207.277 60.1708C207.099 60.1708 206.773 59.9635 206.3 59.5489C205.826 59.1344 205.352 58.6902 204.878 58.2164C204.464 57.7425 204.256 57.4168 204.256 57.2391V11.1318L198.748 9.79923V6.33452C199.696 6.15684 200.969 5.97916 202.568 5.80149C204.227 5.56458 205.767 5.3869 207.188 5.26845C208.609 5.09078 209.439 5.00194 209.675 5.00194C209.853 5.00194 210.179 5.20923 210.653 5.62381C211.127 6.03839 211.541 6.51219 211.896 7.04523C212.311 7.51903 212.518 7.84478 212.518 8.02246V54.1298L217.404 55.0182V11.1318C218.411 10.4803 219.655 9.68078 221.136 8.73316C222.616 7.78555 223.979 6.95639 225.222 6.24568C226.525 5.47575 227.325 5.06116 227.621 5.00194C229.22 4.88349 230.967 4.97233 232.862 5.26845C234.817 5.56458 236.416 6.09762 237.66 6.86755C238.607 7.99284 239.377 9.53272 239.97 11.4872C240.621 13.4416 240.947 15.7514 240.947 18.4166V54.0409L246.455 55.3735V58.8382C245.744 58.9567 244.826 59.1047 243.701 59.2824C242.575 59.4009 241.421 59.5193 240.236 59.6378C239.052 59.8155 238.015 59.9339 237.127 59.9931C236.238 60.1116 235.705 60.1708 235.528 60.1708C235.35 60.1708 235.024 59.9339 234.55 59.4601C234.077 59.0455 233.632 58.6013 233.218 58.1275C232.862 57.6537 232.685 57.328 232.685 57.1503Z" fill="url(#paint30_linear_410_594)"/>
<g filter="url(#filter8_d_410_594)">
<path d="M14.8216 10.9829C14.4668 13.1117 14.112 15.1814 13.7572 17.192C13.4615 19.1434 13.225 21.2723 13.0476 23.5785C12.8702 25.8256 12.7815 28.4867 12.7815 31.5617C12.7815 37.5934 13.3137 42.1763 14.3781 45.3105C15.4425 48.4446 16.8322 50.6325 18.5471 51.8744V12.8456C18.5471 12.1951 18.7836 11.1603 19.2567 9.74107C19.7889 8.32184 20.3507 6.81391 20.942 5.21728C21.4742 5.03988 21.9177 4.95117 22.2726 4.95117C22.8639 4.95117 24.0466 5.01031 25.8206 5.12858C27.6538 5.18771 29.6644 5.27641 31.8523 5.39468C34.0403 5.51295 36.0213 5.66079 37.7954 5.83819L36.7309 21.1836H31.941L30.8766 12.136C29.8713 11.8995 28.5704 11.6629 26.9737 11.4264C25.4362 11.1899 24.1649 11.042 23.1596 10.9829V48.5924C23.1596 48.9472 23.0117 49.5681 22.7161 50.4551C22.4204 51.283 22.036 52.1996 21.5629 53.2049C22.3317 53.3823 23.1891 53.471 24.1353 53.471L36.5535 53.3823V57.9948C35.7848 58.2313 34.543 58.4679 32.8281 58.7044C31.1723 58.9409 29.3983 59.1479 27.506 59.3253C25.6728 59.5619 24.0466 59.7393 22.6274 59.8575C21.2081 59.9758 20.3211 60.0349 19.9663 60.0349C17.3644 60.0349 14.8216 59.1479 12.338 57.3739C9.91345 55.5998 7.90287 52.8501 6.30624 49.1246C4.76875 45.34 4 40.5206 4 34.6662C4 30.586 4.23654 26.8605 4.70961 23.4898C5.24182 20.1192 5.8923 17.4285 6.66105 15.418C7.31153 14.4718 8.16898 13.4665 9.2334 12.4021C10.2978 11.2786 11.3918 10.2437 12.5154 9.29756L14.8216 10.9829Z" fill="url(#paint31_linear_410_594)"/>
</g>
<g style="mix-blend-mode:soft-light" filter="url(#filter9_b_410_594)">
<path d="M14.8216 11.8081C14.4668 13.9369 14.112 16.0066 13.7572 18.0172C13.4615 19.9686 13.225 22.0975 13.0476 24.4037C12.8702 26.6508 12.7815 29.3119 12.7815 32.3869C12.7815 38.4186 13.3137 43.0015 14.3781 46.1356C15.4425 49.2698 16.8322 51.4577 18.5471 52.6996V13.6708C18.5471 13.0203 18.7836 11.9855 19.2567 10.5663C19.7889 9.14703 20.3507 7.63911 20.942 6.04247C21.4742 5.86507 21.9177 5.77637 22.2726 5.77637C22.8639 5.77637 24.0466 5.8355 25.8206 5.95377C27.6538 6.01291 29.6644 6.10161 31.8523 6.21988C34.0403 6.33815 36.0213 6.48598 37.7954 6.66338L36.7309 22.0088H31.941L30.8766 12.9612C29.8713 12.7247 28.5704 12.4881 26.9737 12.2516C25.4362 12.0151 24.1649 11.8672 23.1596 11.8081V49.4176C23.1596 49.7724 23.0117 50.3933 22.7161 51.2803C22.4204 52.1082 22.036 53.0248 21.5629 54.0301C22.3317 54.2075 23.1891 54.2962 24.1353 54.2962L36.5535 54.2075V57.7643C35.7848 58.0008 34.543 58.4679 32.8281 58.7044C31.1723 58.9409 29.3983 59.1479 27.506 59.3253C25.6728 59.5618 24.0466 59.7392 22.6274 59.8575C21.2081 59.9758 20.3211 60.0349 19.9663 60.0349C17.3644 60.0349 14.8216 59.1479 12.338 57.3739C9.91345 55.5998 7.90287 52.8501 6.30624 49.1246C4.76875 45.34 4 41.3457 4 35.4914C4 31.4112 4.23654 27.6857 4.70961 24.315C5.24182 20.9444 5.8923 18.2537 6.66105 16.2432C7.31153 15.297 8.16898 14.2917 9.2334 13.2273C10.2978 12.1038 11.3918 11.0689 12.5154 10.1228L14.8216 11.8081Z" fill="black" fill-opacity="0.5"/>
</g>
<path d="M14.8216 10.9829C14.4668 13.1117 14.112 15.1814 13.7572 17.192C13.4615 19.1434 13.225 21.2723 13.0476 23.5785C12.8702 25.8256 12.7815 28.4867 12.7815 31.5617C12.7815 37.5934 13.3137 42.1763 14.3781 45.3105C15.4425 48.4446 16.8322 50.6326 18.5471 51.8744V12.8456C18.5471 12.1951 18.7836 11.1603 19.2567 9.74107C19.7889 8.32184 20.3507 6.81391 20.942 5.21728C21.4742 5.03988 21.9177 4.95117 22.2726 4.95117C22.8639 4.95117 24.0466 5.01031 25.8206 5.12858C27.6538 5.18771 29.6644 5.27641 31.8523 5.39468C34.0403 5.51295 36.0213 5.66079 37.7954 5.83819L36.7309 21.1836H31.941L30.8766 12.136C29.8713 11.8995 28.5704 11.6629 26.9737 11.4264C25.4362 11.1899 24.1649 11.042 23.1596 10.9829V48.5924C23.1596 48.9472 23.0117 49.5681 22.7161 50.4551C22.4204 51.283 22.036 52.1996 21.5629 53.2049C22.3317 53.3823 23.1891 53.471 24.1353 53.471L36.5535 53.3823V57.9948C35.7848 58.2313 34.543 58.4679 32.8281 58.7044C31.1723 58.9409 29.3983 59.1479 27.506 59.3253C25.6728 59.5619 24.0466 59.7393 22.6274 59.8575C21.2081 59.9758 20.3211 60.0349 19.9663 60.0349C17.3644 60.0349 14.8216 59.1479 12.338 57.3739C9.91345 55.5999 7.90287 52.8501 6.30624 49.1246C4.76875 45.34 4 40.5206 4 34.6662C4 30.586 4.23654 26.8605 4.70961 23.4898C5.24182 20.1192 5.8923 17.4285 6.66105 15.418C7.31153 14.4718 8.16898 13.4665 9.2334 12.4021C10.2978 11.2786 11.3918 10.2437 12.5154 9.29756L14.8216 10.9829Z" fill="url(#paint32_linear_410_594)" fill-opacity="0.75"/>
<g filter="url(#filter10_d_410_594)">
<path d="M42.7927 55.9041V25.169C42.7927 24.0513 42.6064 23.2648 42.2338 22.8095C41.8613 22.3128 41.2197 22.0644 40.309 22.0644V20.3258C45.6903 17.511 50.492 14.8618 54.7142 12.3782L55.7076 14.3651C55.2937 14.5721 54.7142 14.986 53.9691 15.6069C53.224 16.1864 52.6031 16.7867 52.1063 17.4076C50.8645 18.9805 50.2436 20.7605 50.2436 22.7474V28.0252C54.5072 25.8313 56.9909 24.7343 57.6946 24.7343C59.0192 24.7343 60.2817 25.5622 61.4821 27.218C62.6825 28.8737 63.2828 30.6951 63.2828 32.682V50.9368C63.2828 53.2135 64.2969 54.5588 66.3252 54.9727V56.3387L59.5573 60.1263C58.6466 59.7538 57.798 59.1535 57.0116 58.3257C56.2251 57.4564 55.8318 56.6492 55.8318 55.9041V37.8977C55.8318 33.841 55.0867 31.5437 53.5965 31.0055C52.8928 30.7572 51.7752 30.633 50.2436 30.633V50.9368C50.2436 53.4618 51.0922 54.8899 52.7894 55.2211V56.5871L46.5181 60.1263C45.6075 59.7538 44.7589 59.1535 43.9724 58.3257C43.1859 57.4564 42.7927 56.6492 42.7927 55.9041Z" fill="url(#paint33_linear_410_594)"/>
<path d="M79.4071 50.4401C79.4071 51.5163 79.7175 52.4063 80.3384 53.11C81.0007 53.7723 81.7251 54.1035 82.5116 54.1035C83.2981 54.1035 84.126 53.793 84.9953 53.1721V33.8617C84.9953 31.3367 84.1467 29.9086 82.4495 29.5774V28.2114L88.7207 24.6722C89.6314 25.0448 90.48 25.6657 91.2665 26.535C92.053 27.3629 92.4462 28.1493 92.4462 28.8944V49.9433C92.4462 51.3094 92.736 52.4891 93.3155 53.4825C93.895 54.476 94.6194 54.9727 95.4887 54.9727V56.3387C95.1989 56.3801 92.9429 57.6427 88.7207 60.1263C87.7687 59.7124 86.8994 59.1121 86.1129 58.3257C85.3678 57.4978 84.9953 56.7113 84.9953 55.9662L77.2339 60.1263C77.1097 60.0435 76.9234 59.94 76.6751 59.8158C76.4267 59.6503 75.9921 59.3398 75.3711 58.8845C74.7916 58.3877 74.2742 57.8703 73.8189 57.3322C72.577 55.9662 71.9561 54.4139 71.9561 52.6754V33.8617C71.9561 31.5851 70.942 30.2397 68.9137 29.8258V28.4598L75.6816 24.6722C76.5923 25.0448 77.4408 25.6657 78.2273 26.535C79.0138 27.3629 79.4071 28.1493 79.4071 28.8944V50.4401Z" fill="url(#paint34_linear_410_594)"/>
<path d="M98.0771 28.4598L104.907 24.7343C105.197 24.8171 105.528 24.9413 105.901 25.1069C106.315 25.2311 106.853 25.6243 107.515 26.2866C108.219 26.9489 108.571 27.694 108.571 28.5219C108.777 28.4391 109.75 27.7975 111.489 26.5971C113.269 25.3552 114.407 24.7343 114.904 24.7343C116.228 24.7343 117.47 25.6036 118.629 27.3422C119.788 29.0807 120.368 30.6744 120.368 32.1232V35.1656L113.972 38.7669L112.917 37.8977C112.917 34.4205 112.586 32.4336 111.923 31.9369C111.178 31.3988 110.061 31.1297 108.571 31.1297V50.9368C108.571 53.4618 109.419 54.8899 111.116 55.2211V56.5871L104.845 60.1263C103.934 59.7538 103.086 59.1535 102.299 58.3257C101.513 57.4564 101.12 56.6492 101.12 55.9041V35.2898C101.12 33.4685 100.788 32.1025 100.126 31.1918C99.5052 30.2811 98.8222 29.8258 98.0771 29.8258V28.4598Z" fill="url(#paint35_linear_410_594)"/>
<path d="M135.759 30.7572C135.345 30.7572 134.973 30.9641 134.642 31.3781V48.5153C134.642 51.7026 136.008 53.6688 138.74 54.4139C140.147 54.7451 141.823 54.9106 143.769 54.9106V56.7113C136.98 58.988 133.358 60.1263 132.903 60.1263C131.661 60.1263 130.399 59.257 129.115 57.5185C127.832 55.7385 127.191 53.6688 127.191 51.3094V30.4467C127.191 30.157 129.55 29.1428 134.269 27.4042C139.029 25.6243 141.761 24.7343 142.465 24.7343C142.713 24.7343 143.003 25.3345 143.334 26.535C143.665 27.7354 144.038 29.1842 144.452 30.8814C144.907 32.5785 145.363 33.841 145.818 34.6689C146.315 35.4554 147.225 35.8486 148.55 35.8486V37.0905C147.639 37.5044 146.087 38.2495 143.893 39.3258C141.741 40.3606 140.582 40.878 140.416 40.878C139.795 40.878 139.009 39.2016 138.057 35.8486C137.105 32.4543 136.339 30.7572 135.759 30.7572Z" fill="url(#paint36_linear_410_594)"/>
<path d="M154.778 55.9041V25.169C154.778 24.0513 154.591 23.2648 154.219 22.8095C153.846 22.3128 153.205 22.0644 152.294 22.0644V20.3258C157.675 17.511 162.477 14.8618 166.699 12.3782L167.693 14.3651C167.279 14.5721 166.699 14.986 165.954 15.6069C165.209 16.1864 164.588 16.7867 164.091 17.4076C162.849 18.9805 162.228 20.7605 162.228 22.7474V28.0252C166.492 25.8313 168.976 24.7343 169.679 24.7343C171.004 24.7343 172.267 25.5622 173.467 27.218C174.667 28.8737 175.268 30.6951 175.268 32.682V50.9368C175.268 53.2135 176.282 54.5588 178.31 54.9727V56.3387L171.542 60.1263C170.631 59.7538 169.783 59.1535 168.996 58.3257C168.21 57.4564 167.817 56.6492 167.817 55.9041V37.8977C167.817 33.841 167.072 31.5437 165.581 31.0055C164.878 30.7572 163.76 30.633 162.228 30.633V50.9368C162.228 53.4618 163.077 54.8899 164.774 55.2211V56.5871L158.503 60.1263C157.592 59.7538 156.744 59.1535 155.957 58.3257C155.171 57.4564 154.778 56.6492 154.778 55.9041Z" fill="url(#paint37_linear_410_594)"/>
</g>
<g style="mix-blend-mode:soft-light" filter="url(#filter11_b_410_594)">
<path d="M42.7624 56.0003L42.7704 25.8804C42.7704 24.7627 42.5841 23.9763 42.2116 23.5209C41.839 23.0242 41.1974 22.7758 40.2867 22.7758V21.0373C45.668 18.2225 50.4697 15.5732 54.6919 13.0896L55.6854 15.0765C55.2714 15.2835 54.6919 15.6974 53.9468 16.3183C53.2017 16.8979 52.5808 17.4981 52.0841 18.119C50.8422 19.692 50.2213 21.4719 50.2213 23.4588V28.7366C54.4849 26.5427 56.9686 25.4457 57.6723 25.4457C58.9969 25.4457 60.2594 26.2736 61.4598 27.9294C62.6603 29.5852 63.2605 31.4065 63.2605 33.3934V51.6482C63.2605 53.9249 64.2746 55.2702 66.3029 55.6842L66.2807 56.4129L59.6791 60.1263C58.7684 59.7537 57.5773 58.8911 56.7908 58.0633C56.0043 57.194 55.8726 56.4293 55.8726 55.6842L55.8095 38.6091C55.8095 34.5525 55.0644 32.2551 53.5743 31.717C52.8706 31.4686 51.7529 31.3444 50.2213 31.3444V51.6482C50.2213 54.1733 51.0699 55.6014 52.7671 55.9325V56.4129L46.4959 60.0125C45.5852 59.64 44.7867 58.8911 44.0002 58.0633C43.2137 57.194 42.7624 56.7453 42.7624 56.0003Z" fill="black" fill-opacity="0.5"/>
<path d="M79.407 51.2653C79.407 52.3415 79.7175 53.2315 80.3384 53.9352C81.0007 54.5975 81.7251 54.9286 82.5116 54.9286C83.2981 54.9286 84.126 54.6182 84.9952 53.9973V34.6869C84.9952 32.1619 84.1467 30.7338 82.4495 30.4026V29.0366L88.7207 25.4974C89.6314 25.87 90.48 26.4909 91.2665 27.3602C92.0529 28.188 92.4462 28.9745 92.4462 29.7196V50.7685C92.4462 52.1345 92.7359 53.3143 93.3155 54.3077C93.895 55.3012 94.6194 55.7979 95.4887 55.7979V56.2888C95.1989 56.3302 92.8057 57.7564 88.5835 60.24C87.6314 59.8261 87.307 59.7887 86.5205 59.0022C85.7754 58.1743 84.9952 56.6428 84.9952 55.8977L77.8558 59.8274C77.7316 59.7446 76.8664 59.9516 76.618 59.8274C76.3696 59.6618 76.8263 59.8702 76.2054 59.4148C75.6259 58.9181 74.5977 58.3025 74.1424 57.7644C72.9006 56.3984 71.9561 54.7124 71.9561 52.9739V34.6869C71.9561 32.4102 70.9419 31.0649 68.9136 30.651V29.285L75.6816 25.4974C76.5922 25.87 77.4408 26.4909 78.2273 27.3602C79.0138 28.188 79.407 28.9745 79.407 29.7196V51.2653Z" fill="black" fill-opacity="0.5"/>
<path d="M98.0771 29.285L104.907 25.5595C105.197 25.6423 105.528 25.7665 105.901 25.9321C106.315 26.0562 106.853 26.4495 107.515 27.1118C108.219 27.7741 108.57 28.5192 108.57 29.3471C108.777 29.2643 109.75 28.6227 111.489 27.4223C113.269 26.1804 114.407 25.5595 114.904 25.5595C116.228 25.5595 117.47 26.4288 118.629 28.1674C119.788 29.9059 120.368 31.4996 120.368 32.9484V35.9908L113.972 39.5921L112.917 38.7228C112.917 35.2457 112.586 33.2588 111.923 32.7621C111.178 32.224 110.061 31.9549 108.57 31.9549V51.762C108.57 54.287 109.419 55.7151 111.116 56.0463V57.4123L104.845 60.9515C103.934 60.5789 103.086 59.9787 102.299 59.1509C101.513 58.2816 101.12 57.4744 101.12 56.7293V36.115C101.12 34.2937 100.788 32.9277 100.126 32.017C99.5052 31.1063 98.8222 30.651 98.0771 30.651V29.285Z" fill="black" fill-opacity="0.5"/>
<path d="M135.759 31.5824C135.345 31.5824 134.973 31.7893 134.642 32.2033V49.3404C134.642 52.5278 136.008 54.494 138.74 55.2391C140.147 55.5703 141.823 55.7358 143.769 55.7358V57.5365C136.98 59.8132 133.358 60.9515 132.903 60.9515C131.661 60.9515 130.399 60.0822 129.115 58.3437C127.832 56.5637 127.191 54.494 127.191 52.1345V31.2719C127.191 30.9821 129.55 29.968 134.269 28.2294C139.029 26.4495 141.761 25.5595 142.465 25.5595C142.713 25.5595 143.003 26.1597 143.334 27.3602C143.665 28.5606 144.038 30.0094 144.452 31.7065C144.907 33.4037 145.363 34.6662 145.818 35.4941C146.315 36.2806 147.225 36.6738 148.55 36.6738V37.9157C147.639 38.3296 146.087 39.0747 143.893 40.1509C141.741 41.1858 140.582 41.7032 140.416 41.7032C139.795 41.7032 139.009 40.0268 138.057 36.6738C137.104 33.2795 136.339 31.5824 135.759 31.5824Z" fill="black" fill-opacity="0.5"/>
<path d="M154.778 56.7293V25.9942C154.778 24.8765 154.591 24.09 154.219 23.6347C153.846 23.138 153.205 22.8896 152.294 22.8896V21.151C157.675 18.3362 162.477 15.687 166.699 13.2034L167.692 15.1903C167.279 15.3973 166.699 15.8112 165.954 16.4321C165.209 17.0116 164.588 17.6118 164.091 18.2328C162.849 19.8057 162.228 21.5857 162.228 23.5726V28.8503C166.492 26.6565 168.976 25.5595 169.679 25.5595C171.004 25.5595 172.267 26.3874 173.467 28.0432C174.667 29.6989 175.268 31.5203 175.268 33.5072V51.762C175.268 54.0387 176.282 55.384 178.31 55.7979V57.1639L171.542 60.9515C170.631 60.5789 169.783 59.9787 168.996 59.1509C168.21 58.2816 167.817 57.4744 167.817 56.7293V38.7228C167.817 34.6662 167.072 32.3689 165.581 31.8307C164.878 31.5824 163.76 31.4582 162.228 31.4582V51.762C162.228 54.287 163.077 55.7151 164.774 56.0463V57.4123L158.503 60.9515C157.592 60.5789 156.744 59.9787 155.957 59.1509C155.171 58.2816 154.778 57.4744 154.778 56.7293Z" fill="black" fill-opacity="0.5"/>
</g>
<path d="M42.7927 55.9041V25.169C42.7927 24.0513 42.6064 23.2648 42.2338 22.8095C41.8613 22.3128 41.2197 22.0644 40.309 22.0644V20.3258C45.6903 17.511 50.492 14.8618 54.7142 12.3782L55.7076 14.3651C55.2937 14.5721 54.7142 14.986 53.9691 15.6069C53.224 16.1864 52.6031 16.7867 52.1063 17.4076C50.8645 18.9805 50.2436 20.7605 50.2436 22.7474V28.0252C54.5072 25.8313 56.9909 24.7343 57.6946 24.7343C59.0192 24.7343 60.2817 25.5622 61.4821 27.218C62.6825 28.8737 63.2828 30.6951 63.2828 32.682V50.9368C63.2828 53.2135 64.2969 54.5588 66.3252 54.9727V56.3387L59.5573 60.1263C58.6466 59.7538 57.798 59.1535 57.0116 58.3257C56.2251 57.4564 55.8318 56.6492 55.8318 55.9041V37.8977C55.8318 33.841 55.0867 31.5437 53.5965 31.0055C52.8928 30.7572 51.7752 30.633 50.2436 30.633V50.9368C50.2436 53.4618 51.0922 54.8899 52.7894 55.2211V56.5871L46.5181 60.1263C45.6075 59.7538 44.7589 59.1535 43.9724 58.3257C43.1859 57.4564 42.7927 56.6492 42.7927 55.9041Z" fill="url(#paint38_linear_410_594)" fill-opacity="0.5"/>
<path d="M79.4071 50.4401C79.4071 51.5163 79.7175 52.4063 80.3384 53.11C81.0007 53.7723 81.7251 54.1035 82.5116 54.1035C83.2981 54.1035 84.126 53.793 84.9953 53.1721V33.8617C84.9953 31.3367 84.1467 29.9086 82.4495 29.5774V28.2114L88.7207 24.6722C89.6314 25.0448 90.48 25.6657 91.2665 26.535C92.053 27.3629 92.4462 28.1493 92.4462 28.8944V49.9433C92.4462 51.3094 92.736 52.4891 93.3155 53.4825C93.895 54.476 94.6194 54.9727 95.4887 54.9727V56.3387C95.1989 56.3801 92.9429 57.6427 88.7207 60.1263C87.7687 59.7124 86.8994 59.1121 86.1129 58.3257C85.3678 57.4978 84.9953 56.7113 84.9953 55.9662L77.2339 60.1263C77.1097 60.0435 76.9234 59.94 76.6751 59.8158C76.4267 59.6503 75.9921 59.3398 75.3711 58.8845C74.7916 58.3877 74.2742 57.8703 73.8189 57.3322C72.577 55.9662 71.9561 54.4139 71.9561 52.6754V33.8617C71.9561 31.5851 70.942 30.2397 68.9137 29.8258V28.4598L75.6816 24.6722C76.5923 25.0448 77.4408 25.6657 78.2273 26.535C79.0138 27.3629 79.4071 28.1493 79.4071 28.8944V50.4401Z" fill="url(#paint39_linear_410_594)" fill-opacity="0.5"/>
<path d="M98.0771 28.4598L104.907 24.7343C105.197 24.8171 105.528 24.9413 105.901 25.1069C106.315 25.2311 106.853 25.6243 107.515 26.2866C108.219 26.9489 108.571 27.694 108.571 28.5219C108.777 28.4391 109.75 27.7975 111.489 26.5971C113.269 25.3552 114.407 24.7343 114.904 24.7343C116.228 24.7343 117.47 25.6036 118.629 27.3422C119.788 29.0807 120.368 30.6744 120.368 32.1232V35.1656L113.972 38.7669L112.917 37.8977C112.917 34.4205 112.586 32.4336 111.923 31.9369C111.178 31.3988 110.061 31.1297 108.571 31.1297V50.9368C108.571 53.4618 109.419 54.8899 111.116 55.2211V56.5871L104.845 60.1263C103.934 59.7538 103.086 59.1535 102.299 58.3257C101.513 57.4564 101.12 56.6492 101.12 55.9041V35.2898C101.12 33.4685 100.788 32.1025 100.126 31.1918C99.5052 30.2811 98.8222 29.8258 98.0771 29.8258V28.4598Z" fill="url(#paint40_linear_410_594)" fill-opacity="0.5"/>
<path d="M135.759 30.7572C135.345 30.7572 134.973 30.9641 134.642 31.3781V48.5153C134.642 51.7026 136.008 53.6688 138.74 54.4139C140.147 54.7451 141.823 54.9106 143.769 54.9106V56.7113C136.98 58.988 133.358 60.1263 132.903 60.1263C131.661 60.1263 130.399 59.257 129.115 57.5185C127.832 55.7385 127.191 53.6688 127.191 51.3094V30.4467C127.191 30.157 129.55 29.1428 134.269 27.4042C139.029 25.6243 141.761 24.7343 142.465 24.7343C142.713 24.7343 143.003 25.3345 143.334 26.535C143.665 27.7354 144.038 29.1842 144.452 30.8814C144.907 32.5785 145.363 33.841 145.818 34.6689C146.315 35.4554 147.225 35.8486 148.55 35.8486V37.0905C147.639 37.5044 146.087 38.2495 143.893 39.3258C141.741 40.3606 140.582 40.878 140.416 40.878C139.795 40.878 139.009 39.2016 138.057 35.8486C137.105 32.4543 136.339 30.7572 135.759 30.7572Z" fill="url(#paint41_linear_410_594)" fill-opacity="0.5"/>
<path d="M154.778 55.9041V25.169C154.778 24.0513 154.591 23.2648 154.219 22.8095C153.846 22.3128 153.205 22.0644 152.294 22.0644V20.3258C157.675 17.511 162.477 14.8618 166.699 12.3782L167.693 14.3651C167.279 14.5721 166.699 14.986 165.954 15.6069C165.209 16.1864 164.588 16.7867 164.091 17.4076C162.849 18.9805 162.228 20.7605 162.228 22.7474V28.0252C166.492 25.8313 168.976 24.7343 169.679 24.7343C171.004 24.7343 172.267 25.5622 173.467 27.218C174.667 28.8737 175.268 30.6951 175.268 32.682V50.9368C175.268 53.2135 176.282 54.5588 178.31 54.9727V56.3387L171.542 60.1263C170.631 59.7538 169.783 59.1535 168.996 58.3257C168.21 57.4564 167.817 56.6492 167.817 55.9041V37.8977C167.817 33.841 167.072 31.5437 165.581 31.0055C164.878 30.7572 163.76 30.633 162.228 30.633V50.9368C162.228 53.4618 163.077 54.8899 164.774 55.2211V56.5871L158.503 60.1263C157.592 59.7538 156.744 59.1535 155.957 58.3257C155.171 57.4564 154.778 56.6492 154.778 55.9041Z" fill="url(#paint42_linear_410_594)" fill-opacity="0.5"/>
<defs>
<filter id="filter0_d_410_594" x="401.05" y="0" width="206.951" height="67.6211" filterUnits="userSpaceOnUse" color-interpolation-filters="sRGB">
<feFlood flood-opacity="0" result="BackgroundImageFix"/>
<feColorMatrix in="SourceAlpha" type="matrix" values="0 0 0 0 0 0 0 0 0 0 0 0 0 0 0 0 0 0 127 0" result="hardAlpha"/>
<feOffset dy="4"/>
<feGaussianBlur stdDeviation="2"/>
<feComposite in2="hardAlpha" operator="out"/>
<feColorMatrix type="matrix" values="0 0 0 0 0 0 0 0 0 0 0 0 0 0 0 0 0 0 0.28 0"/>
<feBlend mode="normal" in2="BackgroundImageFix" result="effect1_dropShadow_410_594"/>
<feBlend mode="normal" in="SourceGraphic" in2="effect1_dropShadow_410_594" result="shape"/>
</filter>
<filter id="filter1_b_410_594" x="355.05" y="-50" width="298.951" height="159.621" filterUnits="userSpaceOnUse" color-interpolation-filters="sRGB">
<feFlood flood-opacity="0" result="BackgroundImageFix"/>
<feGaussianBlur in="BackgroundImage" stdDeviation="25"/>
<feComposite in2="SourceAlpha" operator="in" result="effect1_backgroundBlur_410_594"/>
<feBlend mode="normal" in="SourceGraphic" in2="effect1_backgroundBlur_410_594" result="shape"/>
</filter>
<filter id="filter2_d_410_594" x="358.964" y="4.95117" width="44.2466" height="62.3042" filterUnits="userSpaceOnUse" color-interpolation-filters="sRGB">
<feFlood flood-opacity="0" result="BackgroundImageFix"/>
<feColorMatrix in="SourceAlpha" type="matrix" values="0 0 0 0 0 0 0 0 0 0 0 0 0 0 0 0 0 0 127 0" result="hardAlpha"/>
<feOffset dy="4"/>
<feGaussianBlur stdDeviation="2"/>
<feComposite in2="hardAlpha" operator="out"/>
<feColorMatrix type="matrix" values="0 0 0 0 0 0 0 0 0 0 0 0 0 0 0 0 0 0 0.28 0"/>
<feBlend mode="normal" in2="BackgroundImageFix" result="effect1_dropShadow_410_594"/>
<feBlend mode="normal" in="SourceGraphic" in2="effect1_dropShadow_410_594" result="shape"/>
</filter>
<filter id="filter3_b_410_594" x="312.964" y="-45.0488" width="136.247" height="154.304" filterUnits="userSpaceOnUse" color-interpolation-filters="sRGB">
<feFlood flood-opacity="0" result="BackgroundImageFix"/>
<feGaussianBlur in="BackgroundImage" stdDeviation="25"/>
<feComposite in2="SourceAlpha" operator="in" result="effect1_backgroundBlur_410_594"/>
<feBlend mode="normal" in="SourceGraphic" in2="effect1_backgroundBlur_410_594" result="shape"/>
</filter>
<filter id="filter4_d_410_594" x="245.911" y="24.7563" width="100.025" height="43.5088" filterUnits="userSpaceOnUse" color-interpolation-filters="sRGB">
<feFlood flood-opacity="0" result="BackgroundImageFix"/>
<feColorMatrix in="SourceAlpha" type="matrix" values="0 0 0 0 0 0 0 0 0 0 0 0 0 0 0 0 0 0 127 0" result="hardAlpha"/>
<feOffset dy="4"/>
<feGaussianBlur stdDeviation="2"/>
<feComposite in2="hardAlpha" operator="out"/>
<feColorMatrix type="matrix" values="0 0 0 0 0 0 0 0 0 0 0 0 0 0 0 0 0 0 0.28 0"/>
<feBlend mode="normal" in2="BackgroundImageFix" result="effect1_dropShadow_410_594"/>
<feBlend mode="normal" in="SourceGraphic" in2="effect1_dropShadow_410_594" result="shape"/>
</filter>
<filter id="filter5_b_410_594" x="199.911" y="-25.2437" width="192.025" height="135.509" filterUnits="userSpaceOnUse" color-interpolation-filters="sRGB">
<feFlood flood-opacity="0" result="BackgroundImageFix"/>
<feGaussianBlur in="BackgroundImage" stdDeviation="25"/>
<feComposite in2="SourceAlpha" operator="in" result="effect1_backgroundBlur_410_594"/>
<feBlend mode="normal" in="SourceGraphic" in2="effect1_backgroundBlur_410_594" result="shape"/>
</filter>
<filter id="filter6_d_410_594" x="194.748" y="4.95117" width="55.7065" height="63.2197" filterUnits="userSpaceOnUse" color-interpolation-filters="sRGB">
<feFlood flood-opacity="0" result="BackgroundImageFix"/>
<feColorMatrix in="SourceAlpha" type="matrix" values="0 0 0 0 0 0 0 0 0 0 0 0 0 0 0 0 0 0 127 0" result="hardAlpha"/>
<feOffset dy="4"/>
<feGaussianBlur stdDeviation="2"/>
<feComposite in2="hardAlpha" operator="out"/>
<feColorMatrix type="matrix" values="0 0 0 0 0 0 0 0 0 0 0 0 0 0 0 0 0 0 0.28 0"/>
<feBlend mode="normal" in2="BackgroundImageFix" result="effect1_dropShadow_410_594"/>
<feBlend mode="normal" in="SourceGraphic" in2="effect1_dropShadow_410_594" result="shape"/>
</filter>
<filter id="filter7_b_410_594" x="148.748" y="-44.2236" width="147.706" height="155.22" filterUnits="userSpaceOnUse" color-interpolation-filters="sRGB">
<feFlood flood-opacity="0" result="BackgroundImageFix"/>
<feGaussianBlur in="BackgroundImage" stdDeviation="25"/>
<feComposite in2="SourceAlpha" operator="in" result="effect1_backgroundBlur_410_594"/>
<feBlend mode="normal" in="SourceGraphic" in2="effect1_backgroundBlur_410_594" result="shape"/>
</filter>
<filter id="filter8_d_410_594" x="0" y="4.95117" width="41.7953" height="63.0837" filterUnits="userSpaceOnUse" color-interpolation-filters="sRGB">
<feFlood flood-opacity="0" result="BackgroundImageFix"/>
<feColorMatrix in="SourceAlpha" type="matrix" values="0 0 0 0 0 0 0 0 0 0 0 0 0 0 0 0 0 0 127 0" result="hardAlpha"/>
<feOffset dy="4"/>
<feGaussianBlur stdDeviation="2"/>
<feComposite in2="hardAlpha" operator="out"/>
<feColorMatrix type="matrix" values="0 0 0 0 0 0 0 0 0 0 0 0 0 0 0 0 0 0 0.25 0"/>
<feBlend mode="normal" in2="BackgroundImageFix" result="effect1_dropShadow_410_594"/>
<feBlend mode="normal" in="SourceGraphic" in2="effect1_dropShadow_410_594" result="shape"/>
</filter>
<filter id="filter9_b_410_594" x="-46" y="-44.2236" width="133.795" height="154.259" filterUnits="userSpaceOnUse" color-interpolation-filters="sRGB">
<feFlood flood-opacity="0" result="BackgroundImageFix"/>
<feGaussianBlur in="BackgroundImage" stdDeviation="25"/>
<feComposite in2="SourceAlpha" operator="in" result="effect1_backgroundBlur_410_594"/>
<feBlend mode="normal" in="SourceGraphic" in2="effect1_backgroundBlur_410_594" result="shape"/>
</filter>
<filter id="filter10_d_410_594" x="36.309" y="12.3782" width="146.001" height="55.748" filterUnits="userSpaceOnUse" color-interpolation-filters="sRGB">
<feFlood flood-opacity="0" result="BackgroundImageFix"/>
<feColorMatrix in="SourceAlpha" type="matrix" values="0 0 0 0 0 0 0 0 0 0 0 0 0 0 0 0 0 0 127 0" result="hardAlpha"/>
<feOffset dy="4"/>
<feGaussianBlur stdDeviation="2"/>
<feComposite in2="hardAlpha" operator="out"/>
<feColorMatrix type="matrix" values="0 0 0 0 0 0 0 0 0 0 0 0 0 0 0 0 0 0 0.25 0"/>
<feBlend mode="normal" in2="BackgroundImageFix" result="effect1_dropShadow_410_594"/>
<feBlend mode="normal" in="SourceGraphic" in2="effect1_dropShadow_410_594" result="shape"/>
</filter>
<filter id="filter11_b_410_594" x="-9.71326" y="-36.9104" width="238.023" height="147.862" filterUnits="userSpaceOnUse" color-interpolation-filters="sRGB">
<feFlood flood-opacity="0" result="BackgroundImageFix"/>
<feGaussianBlur in="BackgroundImage" stdDeviation="25"/>
<feComposite in2="SourceAlpha" operator="in" result="effect1_backgroundBlur_410_594"/>
<feBlend mode="normal" in="SourceGraphic" in2="effect1_backgroundBlur_410_594" result="shape"/>
</filter>
<linearGradient id="paint0_linear_410_594" x1="504.525" y1="0" x2="504.525" y2="59.6211" gradientUnits="userSpaceOnUse">
<stop stop-color="#EACB63"/>
<stop offset="1" stop-color="#D9A43B"/>
</linearGradient>
<linearGradient id="paint1_linear_410_594" x1="504.525" y1="0" x2="504.525" y2="59.6211" gradientUnits="userSpaceOnUse">
<stop stop-color="#EACB63"/>
<stop offset="1" stop-color="#D9A43B"/>
</linearGradient>
<linearGradient id="paint2_linear_410_594" x1="504.525" y1="0" x2="504.525" y2="59.6211" gradientUnits="userSpaceOnUse">
<stop stop-color="#EACB63"/>
<stop offset="1" stop-color="#D9A43B"/>
</linearGradient>
<linearGradient id="paint3_linear_410_594" x1="504.525" y1="0" x2="504.525" y2="59.6211" gradientUnits="userSpaceOnUse">
<stop stop-color="#EACB63"/>
<stop offset="1" stop-color="#D9A43B"/>
</linearGradient>
<linearGradient id="paint4_linear_410_594" x1="504.525" y1="0" x2="504.525" y2="59.6211" gradientUnits="userSpaceOnUse">
<stop stop-color="#EACB63"/>
<stop offset="1" stop-color="#D9A43B"/>
</linearGradient>
<linearGradient id="paint5_linear_410_594" x1="504.525" y1="0" x2="504.525" y2="59.6211" gradientUnits="userSpaceOnUse">
<stop stop-color="#EACB63"/>
<stop offset="1" stop-color="#D9A43B"/>
</linearGradient>
<linearGradient id="paint6_linear_410_594" x1="504.525" y1="0" x2="504.525" y2="59.6211" gradientUnits="userSpaceOnUse">
<stop stop-color="#EACB63"/>
<stop offset="1" stop-color="#D9A43B"/>
</linearGradient>
<linearGradient id="paint7_linear_410_594" x1="504.525" y1="0" x2="504.525" y2="59.6211" gradientUnits="userSpaceOnUse">
<stop stop-color="#EACB63"/>
<stop offset="1" stop-color="#D9A43B"/>
</linearGradient>
<linearGradient id="paint8_linear_410_594" x1="504.525" y1="0" x2="504.525" y2="59.6211" gradientUnits="userSpaceOnUse">
<stop/>
<stop offset="1" stop-color="#D9A43B"/>
</linearGradient>
<linearGradient id="paint9_linear_410_594" x1="504.525" y1="0" x2="504.525" y2="59.6211" gradientUnits="userSpaceOnUse">
<stop/>
<stop offset="1" stop-color="#D9A43B"/>
</linearGradient>
<linearGradient id="paint10_linear_410_594" x1="504.525" y1="0" x2="504.525" y2="59.6211" gradientUnits="userSpaceOnUse">
<stop/>
<stop offset="1" stop-color="#D9A43B"/>
</linearGradient>
<linearGradient id="paint11_linear_410_594" x1="504.525" y1="0" x2="504.525" y2="59.6211" gradientUnits="userSpaceOnUse">
<stop/>
<stop offset="1" stop-color="#D9A43B"/>
</linearGradient>
<linearGradient id="paint12_linear_410_594" x1="504.525" y1="0" x2="504.525" y2="59.6211" gradientUnits="userSpaceOnUse">
<stop/>
<stop offset="1" stop-color="#D9A43B"/>
</linearGradient>
<linearGradient id="paint13_linear_410_594" x1="504.525" y1="0" x2="504.525" y2="59.6211" gradientUnits="userSpaceOnUse">
<stop/>
<stop offset="1" stop-color="#D9A43B"/>
</linearGradient>
<linearGradient id="paint14_linear_410_594" x1="504.525" y1="0" x2="504.525" y2="59.6211" gradientUnits="userSpaceOnUse">
<stop/>
<stop offset="1" stop-color="#D9A43B"/>
</linearGradient>
<linearGradient id="paint15_linear_410_594" x1="504.525" y1="0" x2="504.525" y2="59.6211" gradientUnits="userSpaceOnUse">
<stop/>
<stop offset="1" stop-color="#D9A43B"/>
</linearGradient>
<linearGradient id="paint16_linear_410_594" x1="504.525" y1="0" x2="504.525" y2="59.6211" gradientUnits="userSpaceOnUse">
<stop stop-color="#D2AC4C"/>
<stop offset="0.213542" stop-color="#FAEC8B"/>
<stop offset="0.609375" stop-color="#E4C156"/>
<stop offset="1" stop-color="#E9B443"/>
</linearGradient>
<linearGradient id="paint17_linear_410_594" x1="504.525" y1="0" x2="504.525" y2="59.6211" gradientUnits="userSpaceOnUse">
<stop stop-color="#D2AC4C"/>
<stop offset="0.213542" stop-color="#FAEC8B"/>
<stop offset="0.609375" stop-color="#E4C156"/>
<stop offset="1" stop-color="#E9B443"/>
</linearGradient>
<linearGradient id="paint18_linear_410_594" x1="504.525" y1="0" x2="504.525" y2="59.6211" gradientUnits="userSpaceOnUse">
<stop stop-color="#D2AC4C"/>
<stop offset="0.213542" stop-color="#FAEC8B"/>
<stop offset="0.609375" stop-color="#E4C156"/>
<stop offset="1" stop-color="#E9B443"/>
</linearGradient>
<linearGradient id="paint19_linear_410_594" x1="504.525" y1="0" x2="504.525" y2="59.6211" gradientUnits="userSpaceOnUse">
<stop stop-color="#D2AC4C"/>
<stop offset="0.213542" stop-color="#FAEC8B"/>
<stop offset="0.609375" stop-color="#E4C156"/>
<stop offset="1" stop-color="#E9B443"/>
</linearGradient>
<linearGradient id="paint20_linear_410_594" x1="504.525" y1="0" x2="504.525" y2="59.6211" gradientUnits="userSpaceOnUse">
<stop stop-color="#D2AC4C"/>
<stop offset="0.213542" stop-color="#FAEC8B"/>
<stop offset="0.609375" stop-color="#E4C156"/>
<stop offset="1" stop-color="#E9B443"/>
</linearGradient>
<linearGradient id="paint21_linear_410_594" x1="504.525" y1="0" x2="504.525" y2="59.6211" gradientUnits="userSpaceOnUse">
<stop stop-color="#D2AC4C"/>
<stop offset="0.213542" stop-color="#FAEC8B"/>
<stop offset="0.609375" stop-color="#E4C156"/>
<stop offset="1" stop-color="#E9B443"/>
</linearGradient>
<linearGradient id="paint22_linear_410_594" x1="504.525" y1="0" x2="504.525" y2="59.6211" gradientUnits="userSpaceOnUse">
<stop stop-color="#D2AC4C"/>
<stop offset="0.213542" stop-color="#FAEC8B"/>
<stop offset="0.609375" stop-color="#E4C156"/>
<stop offset="1" stop-color="#E9B443"/>
</linearGradient>
<linearGradient id="paint23_linear_410_594" x1="504.525" y1="0" x2="504.525" y2="59.6211" gradientUnits="userSpaceOnUse">
<stop stop-color="#D2AC4C"/>
<stop offset="0.213542" stop-color="#FAEC8B"/>
<stop offset="0.609375" stop-color="#E4C156"/>
<stop offset="1" stop-color="#E9B443"/>
</linearGradient>
<linearGradient id="paint24_linear_410_594" x1="381.087" y1="4.95117" x2="381.087" y2="59.2555" gradientUnits="userSpaceOnUse">
<stop stop-color="#EACB63"/>
<stop offset="1" stop-color="#D9A43B"/>
</linearGradient>
<linearGradient id="paint25_linear_410_594" x1="381.087" y1="4.95117" x2="381.087" y2="59.2555" gradientUnits="userSpaceOnUse">
<stop stop-color="#D2AC4C"/>
<stop offset="0.276042" stop-color="#FAEC8B"/>
<stop offset="0.552083" stop-color="#E4C156"/>
<stop offset="1" stop-color="#E9B443"/>
</linearGradient>
<linearGradient id="paint26_linear_410_594" x1="295.923" y1="24.7563" x2="295.923" y2="60.2652" gradientUnits="userSpaceOnUse">
<stop stop-color="#D2AC4C"/>
<stop offset="0.0001" stop-color="#FAEC8B"/>
<stop offset="0.463542" stop-color="#E4C156"/>
<stop offset="1" stop-color="#E9B443"/>
</linearGradient>
<linearGradient id="paint27_linear_410_594" x1="295.923" y1="24.7563" x2="295.923" y2="60.2652" gradientUnits="userSpaceOnUse">
<stop stop-color="#D2AC4C"/>
<stop offset="0.0001" stop-color="#FAEC8B"/>
<stop offset="0.463542" stop-color="#E4C156"/>
<stop offset="1" stop-color="#E9B443"/>
</linearGradient>
<linearGradient id="paint28_linear_410_594" x1="295.923" y1="24.7563" x2="295.923" y2="60.2652" gradientUnits="userSpaceOnUse">
<stop stop-color="#D2AC4C"/>
<stop offset="0.0001" stop-color="#FAEC8B"/>
<stop offset="0.463542" stop-color="#E4C156"/>
<stop offset="1" stop-color="#E9B443"/>
</linearGradient>
<linearGradient id="paint29_linear_410_594" x1="222.602" y1="4.95117" x2="222.602" y2="60.1708" gradientUnits="userSpaceOnUse">
<stop stop-color="#EACB63"/>
<stop offset="1" stop-color="#D9A43B"/>
</linearGradient>
<linearGradient id="paint30_linear_410_594" x1="222.602" y1="4.95117" x2="222.602" y2="60.1708" gradientUnits="userSpaceOnUse">
<stop stop-color="#D2AC4C"/>
<stop offset="0.255208" stop-color="#FAEC8B"/>
<stop offset="0.614583" stop-color="#E4C156"/>
<stop offset="1" stop-color="#E9B443"/>
</linearGradient>
<linearGradient id="paint31_linear_410_594" x1="20.8977" y1="4.95117" x2="20.8977" y2="60.0349" gradientUnits="userSpaceOnUse">
<stop stop-color="#EACB63"/>
<stop offset="1" stop-color="#D9A43B"/>
</linearGradient>
<linearGradient id="paint32_linear_410_594" x1="20.8977" y1="4.95117" x2="20.8977" y2="60.0349" gradientUnits="userSpaceOnUse">
<stop stop-color="#D2AC4C"/>
<stop offset="0.3125" stop-color="#FAEC8B"/>
<stop offset="0.729439" stop-color="#E4C156"/>
<stop offset="1" stop-color="#E9B443"/>
</linearGradient>
<linearGradient id="paint33_linear_410_594" x1="109.31" y1="12.3782" x2="109.31" y2="60.1263" gradientUnits="userSpaceOnUse">
<stop stop-color="#EACB63"/>
<stop offset="1" stop-color="#D9A43B"/>
</linearGradient>
<linearGradient id="paint34_linear_410_594" x1="109.31" y1="12.3782" x2="109.31" y2="60.1263" gradientUnits="userSpaceOnUse">
<stop stop-color="#EACB63"/>
<stop offset="1" stop-color="#D9A43B"/>
</linearGradient>
<linearGradient id="paint35_linear_410_594" x1="109.31" y1="12.3782" x2="109.31" y2="60.1263" gradientUnits="userSpaceOnUse">
<stop stop-color="#EACB63"/>
<stop offset="1" stop-color="#D9A43B"/>
</linearGradient>
<linearGradient id="paint36_linear_410_594" x1="109.31" y1="12.3782" x2="109.31" y2="60.1263" gradientUnits="userSpaceOnUse">
<stop stop-color="#EACB63"/>
<stop offset="1" stop-color="#D9A43B"/>
</linearGradient>
<linearGradient id="paint37_linear_410_594" x1="109.31" y1="12.3782" x2="109.31" y2="60.1263" gradientUnits="userSpaceOnUse">
<stop stop-color="#EACB63"/>
<stop offset="1" stop-color="#D9A43B"/>
</linearGradient>
<linearGradient id="paint38_linear_410_594" x1="109.31" y1="12.3782" x2="109.31" y2="60.1263" gradientUnits="userSpaceOnUse">
<stop stop-color="#D2AC4C"/>
<stop offset="0.208333" stop-color="#FAEC8B"/>
<stop offset="0.65625" stop-color="#E4C156"/>
<stop offset="1" stop-color="#E9B443"/>
</linearGradient>
<linearGradient id="paint39_linear_410_594" x1="109.31" y1="12.3782" x2="109.31" y2="60.1263" gradientUnits="userSpaceOnUse">
<stop stop-color="#D2AC4C"/>
<stop offset="0.208333" stop-color="#FAEC8B"/>
<stop offset="0.65625" stop-color="#E4C156"/>
<stop offset="1" stop-color="#E9B443"/>
</linearGradient>
<linearGradient id="paint40_linear_410_594" x1="109.31" y1="12.3782" x2="109.31" y2="60.1263" gradientUnits="userSpaceOnUse">
<stop stop-color="#D2AC4C"/>
<stop offset="0.208333" stop-color="#FAEC8B"/>
<stop offset="0.65625" stop-color="#E4C156"/>
<stop offset="1" stop-color="#E9B443"/>
</linearGradient>
<linearGradient id="paint41_linear_410_594" x1="109.31" y1="12.3782" x2="109.31" y2="60.1263" gradientUnits="userSpaceOnUse">
<stop stop-color="#D2AC4C"/>
<stop offset="0.208333" stop-color="#FAEC8B"/>
<stop offset="0.65625" stop-color="#E4C156"/>
<stop offset="1" stop-color="#E9B443"/>
</linearGradient>
<linearGradient id="paint42_linear_410_594" x1="109.31" y1="12.3782" x2="109.31" y2="60.1263" gradientUnits="userSpaceOnUse">
<stop stop-color="#D2AC4C"/>
<stop offset="0.208333" stop-color="#FAEC8B"/>
<stop offset="0.65625" stop-color="#E4C156"/>
<stop offset="1" stop-color="#E9B443"/>
</linearGradient>
</defs>
</svg>
